<svg id="svg" version="1.1" viewBox="0 0 300 300" width="300" height="300" xmlns="http://www.w3.org/2000/svg"><svg xmlns="http://www.w3.org/2000/svg"><defs><clipPath id="clip-1"><rect x="0" y="0" transform="scale(0.14648,0.14648)" width="2048" height="2048" fill="none"/></clipPath><linearGradient x1="135.92373" y1="280.28906" x2="183.02637" y2="48.91831" gradientUnits="userSpaceOnUse" id="color-1"><stop offset="0" stop-color="#ffad6f"/><stop offset="1" stop-color="#ffe894"/></linearGradient></defs><g clip-path="url(#clip-1)" fill="none" fill-rule="nonzero" stroke="none" stroke-width="1" stroke-linecap="butt" stroke-linejoin="miter" stroke-miterlimit="10" stroke-dasharray="" stroke-dashoffset="0" font-family="none" font-weight="none" font-size="none" text-anchor="none" style="mix-blend-mode: normal"><path d="M121.46279,21.44282c1.28086,-0.1144 2.94653,-0.0687 4.20483,0.21987c3.78926,0.8688 7.52344,2.04521 11.27358,3.08979c4.09556,1.14082 8.23989,2.20283 12.29561,3.47153c3.06299,1.00005 5.7085,3.62725 8.16943,5.62646c1.88086,1.52842 3.74121,3.10942 5.60303,4.65703l5.77002,4.80483c0.89209,0.74385 3.35742,2.74453 4.01807,3.55913c2.34814,2.89907 4.69336,6.29341 6.88916,9.3394l5.57666,7.74419c1.35352,1.88115 3.20508,4.275 4.12646,6.32417c0.72949,-0.18677 2.57813,-0.65361 3.27539,-0.70649c3.70313,-0.28037 8.20459,-0.1979 11.90771,-0.14414c2.9209,0.04219 8.74658,-0.22925 11.2998,0.12437c2.69971,0.37368 8.36133,1.96597 11.14307,2.70513c2.8623,0.7604 9.79688,2.29893 12.08936,3.36855c3.0498,1.42178 8.59131,5.58062 11.60156,7.57896c3.85693,2.69385 7.82959,5.23096 11.65576,7.96714c2.06543,1.47642 3.68994,3.81226 5.15186,5.85557c3.61084,5.04785 7.34912,9.96006 10.91309,15.04204c2.45801,3.50405 2.53418,8.2563 3.39111,12.32227c0.74268,3.86221 1.28174,7.80088 1.97754,11.67407c0.78516,4.546 -0.94482,9.77109 -1.99219,14.24238c-0.72949,3.1333 -1.44434,6.26953 -2.14307,9.41016c-0.53467,2.37158 -1.16455,6.03076 -2.35254,8.05518c-1.94824,3.31787 -4.75488,6.73975 -7.06641,9.85254l-9.35889,12.62549c-3.25195,4.30664 -7.91309,6.57568 -12.50391,9.52588l-10.7417,6.9126c-3.15527,2.03906 -5.96631,4.18066 -9.63135,5.20459c-3.58594,1.00195 -7.16748,2.0332 -10.75195,3.04102l-15.98437,4.5c-1.125,0.3208 -2.40967,0.63135 -3.50537,1.00342c-5.85059,1.99219 -11.7832,2.48438 -17.87256,3.33838c-0.854,1.72852 -1.96582,4.25537 -2.98975,5.79346c-2.43457,3.65918 -5.13135,7.33887 -7.68311,10.92334l-9.79395,13.72119c-1.13818,1.5293 -3.98145,3.83643 -5.5415,5.17236l-7.64268,6.54199l-7.33477,6.31641c-1.18389,1.01807 -3.74194,3.31934 -4.9481,4.00049c-3.248,1.88672 -6.80889,3.2666 -10.19399,4.8999c-1.27617,0.61523 -2.62222,1.22314 -3.91318,1.79883c-2.34683,0.92725 -5.14995,2.64844 -7.57529,3.2168c-3.51738,0.82324 -8.11113,0.62549 -11.76987,0.70313c-2.43135,0.05127 -7.82812,0.50684 -9.88857,-0.04541c-5.61533,-1.50293 -11.56084,-3.7251 -16.90415,-6.03662c-1.0793,-0.48486 -6.20947,-4.30811 -7.48608,-5.2251c-2.24678,-1.96582 -6.24434,-3.90088 -8.19067,-6.11719c-3.67925,-4.18799 -6.52969,-10.07227 -9.75308,-14.66309c-1.52856,-2.17676 -3.44546,-5.18115 -4.02144,-7.63916c-0.86104,-3.67383 -1.25669,-7.47949 -1.94297,-11.18994c-0.63018,-3.94482 -1.44331,-7.93066 -1.70801,-11.90918c0.04805,-2.68213 1.2936,-9.29443 1.7584,-12.17285l1.4644,-9.03662c0.47241,-2.90479 0.76831,-5.47705 2.00347,-8.2002c3.61436,-7.97021 6.34512,-16.49854 10.63491,-24.12451c0.75103,-1.33447 1.5501,-2.66455 2.32192,-3.98877l7.17568,-12.31494c-0.92212,-1.9292 -1.55186,-4.12646 -2.38989,-6.08643c-1.78228,-4.17056 -2.65444,-8.30625 -3.67251,-12.70825l-2.73706,-11.6231c-0.80757,-3.41675 -2.19917,-8.8437 -2.72227,-12.10415c-0.40869,-2.5481 0.48486,-10.0481 0.75264,-13.03403l0.95142,-10.55317c0.11367,-1.24805 0.41265,-5.3209 0.70591,-6.3583c1.07139,-3.79058 2.73823,-8.02207 4.11196,-11.76021c1.54497,-4.2041 3.03721,-8.61489 4.82622,-12.69243c0.27085,-0.61729 1.63037,-2.61958 2.05752,-3.29077l3.13037,-4.95952c1.15415,-1.79736 3.17314,-5.20796 4.3563,-6.71528c0.74121,-0.92593 1.58306,-1.7666 2.51001,-2.50649c1.9229,-1.56211 6.20273,-4.45444 8.43252,-5.95488c3.43433,-1.90151 9.473,-7.64736 13.07227,-8.45757c6.47329,-1.45708 15.58213,-3.13081 22.10815,-3.95522zM82.55435,155.70264l-9.47871,16.25391c-1.6522,2.83887 -3.46948,5.67334 -4.93975,8.60889c-2.0313,4.05615 -3.6334,8.45947 -5.37612,12.65479c-1.08018,2.6001 -2.54985,5.35693 -3.31128,8.05078c-1.01323,3.58301 -1.5917,9.12451 -2.2147,12.96973c-0.46597,2.87549 -1.55112,7.45898 -1.48359,10.17627c0.06753,2.71729 1.14932,7.22168 1.60327,10.07227c0.4125,2.58984 0.61685,5.44189 1.32334,7.95996c0.17827,0.63574 0.41221,1.20557 0.73491,1.78271c1.15503,2.0625 2.60449,4.00635 3.86777,6.00879c1.47466,2.33789 3.81284,6.75586 5.65386,8.62354c1.41592,1.43555 3.40474,2.52539 5.04463,3.70459c2.27666,1.6377 4.55845,3.58301 7.00898,4.93799c2.55615,1.41211 5.74819,2.20605 8.50327,3.18164c1.0938,0.38818 2.24341,0.98438 3.38057,1.18652c1.44595,0.25635 14.31123,0.00146 15.59736,-0.38818c2.57739,-0.78223 6.18662,-2.73779 8.72886,-3.9082c2.51748,-1.15869 6.40532,-2.64551 8.63232,-4.08252c1.42617,-0.92139 2.71289,-2.19727 4.00195,-3.30322l7.24731,-6.22119l6.65347,-5.71875c3.53013,-3.02637 4.0897,-3.63428 6.76743,-7.40479l4.73877,-6.69434c4.15869,-5.82422 8.68359,-11.41113 11.62939,-17.9209c0.95508,-2.10937 2.12695,-4.15283 3.0498,-6.29004l11.61035,-1.58203c1.88086,-0.25342 4.91602,-0.57422 6.71484,-0.97852c2.74072,-0.61377 5.94727,-1.59814 8.70117,-2.37598l15.47021,-4.37109l7.24658,-2.02002c1.11328,-0.30762 3.89209,-1.01221 4.7959,-1.48096c1.52783,-0.79102 3.68848,-2.25146 5.17529,-3.20508l9.96826,-6.3999c2.69971,-1.73291 7.83691,-4.50732 9.61377,-6.83643c3.31934,-4.34619 6.53467,-8.78467 9.79688,-13.1748c1.48096,-1.99365 3.70898,-4.50586 4.80908,-6.67969c0.7998,-1.57617 2.34814,-9.64893 2.86523,-11.9165c0.70459,-3.08716 1.68018,-6.27979 2.12695,-9.4043c0.11133,-0.76934 0.06152,-1.49692 -0.04541,-2.26069c-0.40576,-2.90493 -1.04004,-5.79346 -1.51611,-8.6896c-0.39697,-2.40381 -0.62842,-5.75757 -1.46777,-7.99468c-0.77051,-2.05078 -5.90625,-8.44307 -7.50146,-10.62173c-1.39746,-1.90781 -2.70557,-3.96841 -4.20703,-5.79082c-0.50391,-0.61069 -1.05908,-1.14536 -1.69043,-1.61982c-3.34717,-2.51411 -6.99756,-4.73276 -10.45605,-7.10259c-2.49463,-1.70903 -6.38232,-4.75708 -8.89453,-5.94009c-2.39209,-1.12676 -6.3501,-1.76997 -8.98975,-2.45142c-3.26953,-0.8439 -6.70898,-2.07217 -10.05469,-2.4958c-2.68066,-0.33926 -5.63379,-0.0791 -8.34375,-0.08716c-3.54932,-0.01069 -7.85596,-0.37749 -11.32178,0.12407c-1.62891,0.23555 -3.25342,0.67266 -4.85889,1.0311c-3.10986,0.69404 -6.22119,1.41489 -9.33984,2.06558c-1.59521,-3.61846 -2.88281,-7.53311 -4.49707,-11.13735c-0.39111,-0.87012 -2.1123,-3.15439 -2.72754,-4.00854l-4.71973,-6.55283l-4.09424,-5.67334c-2.41846,-3.34731 -3.10986,-3.91831 -6.26367,-6.54683l-6.3252,-5.26538c-1.25977,-1.04722 -6.79307,-5.9124 -8.10249,-6.29883c-6.56851,-1.93813 -13.33711,-3.71733 -19.93535,-5.60566c-0.41396,-0.11851 -0.82236,-0.14766 -1.24687,-0.07207l-11.70718,1.9897c-0.84683,0.14429 -5.36353,0.86382 -5.84121,1.10068c-2.30171,1.14214 -5.72197,3.75352 -7.93359,5.33979c-2.60933,1.87163 -6.20742,4.10815 -8.61738,6.01904c-0.58418,0.45864 -1.09761,1.00093 -1.52358,1.60928c-1.47466,2.07817 -2.73003,4.50234 -4.18022,6.54902c-2.57461,3.63398 -3.70503,6.20171 -5.22305,10.33989l-2.80869,7.67388c-0.86265,2.36162 -2.09033,5.47808 -2.75405,7.87324c-0.24873,0.8978 -0.48208,4.29771 -0.58213,5.43896l-0.80317,9.13887c-0.22119,2.38784 -1.07461,9.14839 -0.68306,10.93521c1.01133,4.61396 2.23608,9.58726 3.32109,14.23418l2.04785,8.7709c0.30937,1.32334 0.87861,4.0481 1.3002,5.26025c1.96641,5.65459 4.29463,11.27578 6.33018,16.90664z" fill="#250b5d"/><path d="M122.21235,36.5231c0.42451,-0.07559 0.83291,-0.04644 1.24687,0.07207c6.59824,1.88833 13.36685,3.66753 19.93535,5.60566c1.30942,0.38643 6.84272,5.25161 8.10249,6.29883l6.3252,5.26538c3.15381,2.62852 3.84521,3.19951 6.26367,6.54683l4.09424,5.67334l4.71973,6.55283c0.61523,0.85415 2.33643,3.13843 2.72754,4.00854c1.61426,3.60425 2.90186,7.5189 4.49707,11.13735c3.11865,-0.65068 6.22998,-1.37153 9.33984,-2.06558c1.60547,-0.35845 3.22998,-0.79556 4.85889,-1.0311c3.46582,-0.50156 7.77246,-0.13477 11.32178,-0.12407c2.70996,0.00806 5.66309,-0.2521 8.34375,0.08716c3.3457,0.42363 6.78516,1.6519 10.05469,2.4958c2.63965,0.68145 6.59766,1.32466 8.98975,2.45142c2.51221,1.18301 6.3999,4.23105 8.89453,5.94009c3.4585,2.36982 7.10889,4.58848 10.45605,7.10259c0.63135,0.47446 1.18652,1.00913 1.69043,1.61982c1.50146,1.82241 2.80957,3.88301 4.20703,5.79082c1.59521,2.17866 6.73096,8.57095 7.50146,10.62173c0.83936,2.23711 1.0708,5.59087 1.46777,7.99468c0.47607,2.89614 1.11035,5.78467 1.51611,8.6896c0.10693,0.76377 0.15674,1.49136 0.04541,2.26069c-0.44678,3.12451 -1.42236,6.31714 -2.12695,9.4043c-0.51709,2.26758 -2.06543,10.34033 -2.86523,11.9165c-1.1001,2.17383 -3.32812,4.68604 -4.80908,6.67969c-3.26221,4.39014 -6.47754,8.82861 -9.79687,13.1748c-1.77686,2.3291 -6.91406,5.10352 -9.61377,6.83643l-9.96826,6.3999c-1.48682,0.95361 -3.64746,2.41406 -5.17529,3.20508c-0.90381,0.46875 -3.68262,1.17334 -4.7959,1.48096l-7.24658,2.02002l-15.47021,4.37109c-2.75391,0.77783 -5.96045,1.76221 -8.70117,2.37598c-1.79883,0.4043 -4.83398,0.7251 -6.71484,0.97852l-11.61035,1.58203c-0.92285,2.13721 -2.09473,4.18066 -3.0498,6.29004c-2.9458,6.50977 -7.4707,12.09668 -11.62939,17.9209l-4.73877,6.69434c-2.67773,3.77051 -3.2373,4.37842 -6.76743,7.40479l-6.65347,5.71875l-7.24731,6.22119c-1.28906,1.10596 -2.57578,2.38184 -4.00195,3.30322c-2.227,1.43701 -6.11484,2.92383 -8.63232,4.08252c-2.54224,1.17041 -6.15146,3.12598 -8.72886,3.9082c-1.28613,0.38965 -14.15142,0.64453 -15.59736,0.38818c-1.13716,-0.20215 -2.28677,-0.79834 -3.38057,-1.18652c-2.75508,-0.97559 -5.94712,-1.76953 -8.50327,-3.18164c-2.45054,-1.35498 -4.73232,-3.30029 -7.00898,-4.93799c-1.63989,-1.1792 -3.62871,-2.26904 -5.04463,-3.70459c-1.84102,-1.86768 -4.1792,-6.28564 -5.65386,-8.62354c-1.26328,-2.00244 -2.71274,-3.94629 -3.86777,-6.00879c-0.32271,-0.57715 -0.55664,-1.14697 -0.73491,-1.78271c-0.70649,-2.51807 -0.91084,-5.37012 -1.32334,-7.95996c-0.45396,-2.85059 -1.53574,-7.35498 -1.60327,-10.07227c-0.06753,-2.71729 1.01763,-7.30078 1.48359,-10.17627c0.623,-3.84521 1.20146,-9.38672 2.2147,-12.96973c0.76143,-2.69385 2.2311,-5.45068 3.31128,-8.05078c1.74272,-4.19531 3.34482,-8.59863 5.37612,-12.65479c1.47026,-2.93555 3.28755,-5.77002 4.93975,-8.60889l9.47871,-16.25391c-2.03555,-5.63086 -4.36377,-11.25205 -6.33018,-16.90664c-0.42158,-1.21216 -0.99082,-3.93691 -1.3002,-5.26025l-2.04785,-8.7709c-1.08501,-4.64692 -2.30977,-9.62021 -3.32109,-14.23418c-0.39155,-1.78682 0.46187,-8.54736 0.68306,-10.93521l0.80317,-9.13887c0.10005,-1.14126 0.3334,-4.54116 0.58213,-5.43896c0.66372,-2.39517 1.89141,-5.51162 2.75405,-7.87324l2.80869,-7.67388c1.51802,-4.13818 2.64844,-6.70591 5.22305,-10.33989c1.4502,-2.04668 2.70557,-4.47085 4.18022,-6.54902c0.42598,-0.60835 0.9394,-1.15063 1.52358,-1.60928c2.40996,-1.91089 6.00806,-4.14741 8.61738,-6.01904c2.21162,-1.58628 5.63188,-4.19766 7.93359,-5.33979c0.47769,-0.23687 4.99438,-0.9564 5.84121,-1.10068zM217.00928,154.3374c4.46191,-2.98389 5.16797,-2.88428 7.83545,-7.73145c2.05811,-3.7418 1.81055,-3.66284 2.17676,-7.78066c-0.83936,-1.60195 -2.83008,-5.68652 -3.87598,-6.87832c-0.68701,-0.7834 -7.48535,-5.59687 -8.38037,-5.79185c-3.19775,-0.69565 -7.23779,-1.11943 -10.48975,-1.53794c0.23584,1.92876 1.12061,7.7751 1.08984,9.44839c-0.07031,3.71733 -0.69434,9.52441 -1.16016,13.31675c-0.54199,4.41504 -0.85547,10.27881 -1.58789,14.55615c2.83594,-0.98145 5.84033,-1.7959 8.32764,-3.48486c2.02148,-1.37402 4.05762,-2.72021 6.06445,-4.11621zM95.34976,213.53027c-0.38496,1.66406 -1.50352,5.68799 -1.40801,7.17773c0.14443,2.24854 0.64482,6.75146 1.16631,8.90625c1.8498,1.79883 2.31958,1.75488 4.88818,2.36426c2.84062,-1.11475 4.71182,-1.53662 6.8436,-3.70752c1.77451,-1.71826 3.56294,-3.42041 5.36484,-5.10791c-3.21724,-1.25391 -6.43125,-3.33984 -9.45732,-5.08594c-2.25249,-1.29785 -5.39487,-3.04102 -7.39761,-4.54687zM119.65635,78.0917c-0.62534,0.21855 -1.76587,0.63809 -2.27549,0.9022c-1.33799,0.69346 -4.54805,4.77188 -5.0373,6.07046c-0.82617,2.19229 -3.3375,7.8646 -3.61875,9.91494c-0.12686,0.92402 0.38159,6.52119 0.44839,7.82827c2.49785,-2.12241 5.93101,-4.58804 8.5856,-6.6c1.87603,-1.42324 5.36045,-4.21699 7.28423,-5.21851c2.85732,-1.48755 6.60469,-2.677 9.61597,-4.07051c-0.0085,-1.01309 -8.63599,-6.98657 -9.96709,-7.73408c-0.75103,-0.42173 -4.03755,-1.09482 -5.03555,-1.09277zM130.50044,167.18262c0.64556,1.01807 1.39863,2.2793 2.09238,3.2417c3.11631,0.4043 8.43457,1.3916 11.32471,1.2832c1.18623,-4.88672 3.60542,-11.42725 4.68647,-15.96973c0.34131,-1.43555 2.04639,-17.82847 1.96436,-18.04922c-3.2373,1.58247 -6.27788,4.47114 -9.16816,6.68804c-2.63203,2.01885 -5.37231,4.14536 -7.78901,6.40122c-2.63437,2.78027 -5.19595,6.21533 -7.84336,9.00586z" fill="url(#color-1)"/><path d="M200.75977,109.03696c0.86719,-0.08101 18.76318,2.35239 19.83252,2.74307c1.71533,0.62593 4.38135,2.86362 5.96191,3.97134c1.90576,1.33652 6.61963,4.32993 8.04199,5.75962c1.34473,1.35029 6.7251,12.06182 7.97754,14.50737c-0.49805,2.33086 -1.12354,12.15645 -1.82959,13.33711c-0.53174,0.8877 -6.84961,11.56055 -7.29053,11.89307c-4.68164,3.54053 -12.09814,8.33496 -17.22217,11.71436c-0.43799,0.28857 -3.33105,1.30078 -3.94043,1.52051c-4.23486,1.46045 -8.44629,3.04102 -12.66357,4.51465c-1.45166,0.50684 -5.17676,1.97021 -6.50391,2.24268c-3.61816,0.74561 -7.91895,1.29639 -11.61914,1.84277c1.16016,-3.25635 2.13867,-7.0708 3.24756,-10.40039c0.85254,-2.56348 1.76514,-5.66748 2.48584,-8.26611c0.20947,-0.75439 0.49951,-4.19531 0.59619,-5.12549l1.02979,-9.94775l0.96826,-9.38188c0.13184,-1.26182 0.57422,-4.13921 0.44824,-5.23638c-0.89062,-7.74595 -1.76807,-15.75762 -2.9209,-23.45874c4.40479,-0.74824 8.99414,-1.59302 13.40039,-2.22979zM202.61719,161.93848c2.83594,-0.98145 5.84033,-1.7959 8.32764,-3.48486c2.02148,-1.37402 4.05762,-2.72021 6.06445,-4.11621c4.46191,-2.98389 5.16797,-2.88428 7.83545,-7.73145c2.05811,-3.7418 1.81055,-3.66284 2.17676,-7.78066c-0.83936,-1.60195 -2.83008,-5.68652 -3.87598,-6.87832c-0.68701,-0.7834 -7.48535,-5.59687 -8.38037,-5.79185c-3.19775,-0.69565 -7.23779,-1.11943 -10.48975,-1.53794c0.23584,1.92876 1.12061,7.7751 1.08984,9.44839c-0.07031,3.71733 -0.69434,9.52441 -1.16016,13.31675c-0.54199,4.41504 -0.85547,10.27881 -1.58789,14.55615z" fill="#250b5d"/><path d="M162.23584,117.05127l0.22705,-0.029c0.18604,0.08511 0.30908,0.07236 0.34131,0.29077c0.89355,6.01318 2.354,12.20435 3.08203,18.2228c-0.07031,3.18618 -0.55371,6.41968 -0.92139,9.60088c-0.50391,4.36523 -0.83643,8.86084 -1.47656,13.20117c-0.35742,2.42578 -1.56738,5.23975 -2.18262,7.66553c-0.52881,2.08887 -1.36377,4.21582 -1.90869,6.30908c-1.29932,4.89551 -3.49512,9.40283 -5.52979,14.02441c-3.9624,0.16992 -8.34565,0.42334 -12.28682,0.44092c-1.45913,0.00732 -5.53887,-0.68115 -7.14053,-0.9126c-3.64146,-0.51562 -7.27925,-1.05615 -10.91353,-1.61865l-3.39624,-5.3291l-5.18203,-8.09326c-0.77886,-1.21729 -2.51572,-3.78516 -3.08716,-4.97754c-1.30005,-2.7085 -2.56333,-5.73779 -3.81167,-8.50049c2.46621,-3.15527 6.06064,-6.97119 8.6959,-10.11621c1.55698,-1.85786 5.60259,-6.71602 7.19033,-8.14204c2.91885,-2.62148 7.15342,-5.63057 10.27412,-8.21514c1.93052,-1.21743 4.23706,-3.84404 6.16187,-4.84644c4.91704,-2.56055 10.30093,-5.03906 15.40151,-7.20029c1.6333,-0.69155 4.72412,-1.31733 6.46289,-1.7748zM125.76782,159.78369l4.73262,7.39893c0.64556,1.01807 1.39863,2.2793 2.09238,3.2417c3.11631,0.4043 8.43457,1.3916 11.32471,1.2832c1.18623,-4.88672 3.60542,-11.42725 4.68647,-15.96973c0.34131,-1.43555 2.04639,-17.82847 1.96436,-18.04922c-3.2373,1.58247 -6.27788,4.47114 -9.16816,6.68804c-2.63203,2.01885 -5.37231,4.14536 -7.78901,6.40122c-2.63437,2.78027 -5.19595,6.21533 -7.84336,9.00586z" fill="#250b5d"/><path d="M118.4606,62.42036c2.17617,0.30952 10.97637,1.87266 12.84683,2.7854c2.82231,1.37739 11.04902,8.43721 14.08594,10.50454c0.60337,0.4106 3.77607,5.88311 4.37373,6.85928c2.36572,3.86001 4.77686,7.60986 6.38086,11.83433c-1.46338,0.74429 -4.50879,1.89023 -6.14355,2.55381l-12.01055,4.87764c-1.39219,0.56631 -4.53398,1.74653 -5.73018,2.43018c-1.51523,0.86602 -4.21084,3.04072 -5.72271,4.18403l-11.19272,8.4646c-2.04697,1.53794 -4.4896,3.29619 -6.42935,4.91191c-0.95815,0.7979 -2.88794,3.26997 -3.75996,4.33169l-5.81265,7.09497l-2.75171,-10.38252c-0.46318,-1.75225 -1.24863,-4.41812 -1.53062,-6.14268c-0.2376,-1.45269 -0.32432,-4.0418 -0.42524,-5.60991l-0.68584,-10.598c-0.05273,-0.8187 -0.55972,-7.84893 -0.41997,-8.2875c1.50059,-4.71152 3.85913,-10.2022 5.61592,-14.88398c0.40122,-1.06919 2.88853,-3.89209 3.64834,-4.83911c0.68525,-0.8543 4.11929,-5.26128 4.63975,-5.5771c2.59307,-1.57354 8.13545,-3.41792 11.02368,-4.51157zM109.17319,102.80757c2.49785,-2.12241 5.93101,-4.58804 8.5856,-6.6c1.87603,-1.42324 5.36045,-4.21699 7.28423,-5.21851c2.85732,-1.48755 6.60469,-2.677 9.61597,-4.07051c-0.0085,-1.01309 -8.63599,-6.98657 -9.96709,-7.73408c-0.75103,-0.42173 -4.03755,-1.09482 -5.03555,-1.09277c-0.62534,0.21855 -1.76587,0.63809 -2.27549,0.9022c-1.33799,0.69346 -4.54805,4.77188 -5.0373,6.07046c-0.82617,2.19229 -3.3375,7.8646 -3.61875,9.91494c-0.12686,0.92402 0.38159,6.52119 0.44839,7.82827z" fill="#250b5d"/><path d="M93.24785,180.39551c0.64292,0.45117 8.0502,14.63379 9.1481,16.65967c2.80591,5.17969 2.26069,5.00391 8.03745,8.06396c3.16084,1.67432 5.88955,3.99609 9.74971,4.60254c4.74814,1.24951 5.94653,1.34912 10.86387,1.49268l9.54624,0.2666l-5.99106,9.18311c-0.81108,1.24365 -2.38242,3.81152 -3.27598,4.86035c-1.39072,1.63477 -3.65288,3.67676 -5.23843,5.19141l-8.94595,8.56201c-3.64482,3.41309 -3.35771,3.31201 -8.08931,5.27637l-7.92861,3.28418c-2.45713,-0.63721 -9.63647,-2.38184 -11.61665,-3.22705c-0.8584,-0.36621 -7.34429,-6.38965 -8.58604,-7.50586c-0.50684,-3.80713 -1.04019,-7.61133 -1.59976,-11.41113c-0.17329,-1.21875 -0.75337,-4.81348 -0.69961,-5.80518c0.0999,-1.84424 1.06904,-5.33496 1.52695,-7.33008c0.9542,-4.16162 1.82314,-8.56055 2.93496,-12.65479c0.31187,-1.14844 2.14819,-4.62598 2.79272,-5.9458c2.40293,-4.92041 4.27998,-8.99707 7.37139,-13.56299zM95.10806,229.61426c1.8498,1.79883 2.31958,1.75488 4.88818,2.36426c2.84062,-1.11475 4.71182,-1.53662 6.8436,-3.70752c1.77451,-1.71826 3.56294,-3.42041 5.36484,-5.10791c-3.21724,-1.25391 -6.43125,-3.33984 -9.45732,-5.08594c-2.25249,-1.29785 -5.39487,-3.04102 -7.39761,-4.54687c-0.38496,1.66406 -1.50352,5.68799 -1.40801,7.17773c0.14443,2.24854 0.64482,6.75146 1.16631,8.90625z" fill="#250b5d"/></g></svg></svg>