<?xml version="1.0" encoding="UTF-8" standalone="no"?>
<!-- Created with Inkscape (http://www.inkscape.org/) -->

<svg
   xmlns:dc="http://purl.org/dc/elements/1.1/"
   xmlns:cc="http://creativecommons.org/ns#"
   xmlns:rdf="http://www.w3.org/1999/02/22-rdf-syntax-ns#"
   xmlns:svg="http://www.w3.org/2000/svg"
   xmlns="http://www.w3.org/2000/svg"
   xmlns:sodipodi="http://sodipodi.sourceforge.net/DTD/sodipodi-0.dtd"
   xmlns:inkscape="http://www.inkscape.org/namespaces/inkscape"
   width="640"
   height="480"
   id="svg2"
   version="1.1"
   inkscape:version="0.47 r22583"
   sodipodi:docname="background.svg">
  <defs
     id="defs4">
    <inkscape:perspective
       sodipodi:type="inkscape:persp3d"
       inkscape:vp_x="0 : 526.18109 : 1"
       inkscape:vp_y="0 : 1000 : 0"
       inkscape:vp_z="744.09448 : 526.18109 : 1"
       inkscape:persp3d-origin="372.04724 : 350.78739 : 1"
       id="perspective10" />
  </defs>
  <sodipodi:namedview
     id="base"
     pagecolor="#ffffff"
     bordercolor="#666666"
     borderopacity="1.0"
     inkscape:pageopacity="0.0"
     inkscape:pageshadow="2"
     inkscape:zoom="1.5"
     inkscape:cx="333.16667"
     inkscape:cy="259.29972"
     inkscape:document-units="px"
     inkscape:current-layer="layer1"
     showgrid="true"
     inkscape:window-width="1280"
     inkscape:window-height="972"
     inkscape:window-x="-8"
     inkscape:window-y="-8"
     inkscape:window-maximized="1">
    <inkscape:grid
       type="xygrid"
       id="grid3594"
       empspacing="10"
       visible="true"
       enabled="true"
       snapvisiblegridlinesonly="true"
       spacingx="10px"
       spacingy="10px" />
  </sodipodi:namedview>
  <metadata
     id="metadata7">
    <rdf:RDF>
      <cc:Work
         rdf:about="">
        <dc:format>image/svg+xml</dc:format>
        <dc:type
           rdf:resource="http://purl.org/dc/dcmitype/StillImage" />
        <dc:title></dc:title>
      </cc:Work>
    </rdf:RDF>
  </metadata>
  <g
     inkscape:label="Layer 1"
     inkscape:groupmode="layer"
     id="layer1"
     transform="translate(0,-572.36218)">
    <path
       style="fill:#dddddd;fill-opacity:1;stroke:none"
       d="M 450 90 L 420.625 168.3125 C 419.36851 168.75048 418.11601 169.21729 416.875 169.6875 L 320 160 L 329.6875 256.875 C 329.21729 258.11601 328.75048 259.36851 328.3125 260.625 L 250 290 L 327.90625 358.15625 C 347.97397 417.36718 404.00912 460 470 460 C 487.93753 460 505.11825 456.83708 521.0625 451.0625 L 550 480 L 640 480 L 640 390 L 611.0625 361.0625 C 616.83708 345.11824 620 327.93753 620 310 C 620 244.00911 577.36717 187.97397 518.15625 167.90625 L 450 90 z M 470 220 L 520 220 L 520 230 L 480 230 L 480 270 L 469.34375 270 L 470 220 z M 380 310 L 430 310 L 430 320 L 390 320 L 390 360 L 380 360 L 380 310 z M 530 310 L 540 310 L 540 380 L 470 380 L 471.34375 370.65625 L 530 370 L 530 310 z "
       transform="translate(0,572.36218)"
       id="path3606" />
    <path
       style="fill:#dddddd;fill-opacity:1;stroke:none"
       id="path3612"
       d="m 30.199741,907.31375 c 4.339273,4.90556 7.070084,10.92446 9.774611,16.81783 3.251536,7.0102 5.876042,14.29911 7.56232,21.84741 1.086555,4.86376 1.133806,6.10014 1.766576,11.00215 0.429,6.03705 0.533156,12.13969 -0.524128,18.12183 -0.391976,2.21782 -0.828857,3.67944 -1.400475,5.80442 -0.202826,0.6751 -0.390852,1.3549 -0.608478,2.0254 -0.04296,0.1324 -0.904643,2.7428 -1.224,2.8996 -6.963338,3.4192 -6.110572,5.3476 -6.988585,2.0428 0.02291,-0.5059 0.0043,-1.0154 0.06873,-1.5178 0.187003,-1.4572 0.627163,-2.9531 1.044787,-4.3488 0.858529,-2.8693 1.947944,-5.60606 3.109005,-8.36356 1.571597,-3.75201 3.615552,-7.26442 6.205305,-10.40442 1.634615,-1.98193 2.104952,-2.35568 3.909918,-4.13393 3.411146,-3.1323 7.280896,-5.15652 11.443738,-7.32745 0.689801,-0.35974 3.096285,-1.01043 3.882903,-1.12328 0.621543,-0.0892 1.254326,-0.061 1.88149,-0.0915 3.616562,0.21033 6.692073,1.95053 9.212984,4.48803 0.624227,0.62834 1.180483,1.32072 1.770723,1.98109 3.533387,4.3426 6.010716,9.35517 7.933872,14.57946 1.116799,2.88298 1.406052,5.9511 1.870146,8.9752 0.05738,0.2125 0.114759,0.4249 0.172134,0.6373 0,0 -6.323441,3.411 -6.323441,3.411 l 0,0 c -0.05207,-0.2456 -0.104108,-0.4912 -0.156166,-0.7369 -0.284805,-3.0425 -0.440359,-6.10921 -1.451442,-9.03103 -1.743169,-5.21116 -4.131842,-10.17809 -7.743634,-14.3759 -0.593989,-0.62806 -1.153324,-1.29081 -1.781969,-1.88419 -2.510154,-2.36932 -5.547048,-3.91824 -9.03974,-3.96131 -1.829818,0.17283 -1.846961,0.0754 -3.648635,0.66438 -0.64069,0.20944 -2.409601,1.15426 -1.885775,0.73006 1.191405,-0.96483 2.588089,-1.64808 3.931495,-2.38674 1.435237,-0.78914 -5.886939,3.64476 -3.945828,2.9282 -0.676454,0.64021 -1.377088,1.2558 -2.029362,1.92062 -3.518448,3.58615 -6.322867,7.77408 -8.269793,12.4079 -1.139889,2.70245 -2.197439,5.36929 -2.978632,8.20081 -0.364964,1.3228 -0.726951,2.7123 -0.867091,4.0868 -0.04265,0.4183 -0.01253,0.8408 -0.0188,1.2612 0.732635,2.8518 0.292239,0.3985 -6.0182,4.0859 -0.162648,0.095 0.387189,-0.094 0.515049,-0.2327 0.987195,-1.0681 1.449516,-3.3111 2.02618,-4.5641 0.708972,-2.1759 1.215833,-3.5645 1.711451,-5.85858 1.2878,-5.96096 1.368766,-12.10743 0.997569,-18.16989 -0.216991,-1.81319 -0.376357,-3.63422 -0.650973,-5.43958 -1.440142,-9.46771 -4.37667,-18.63477 -8.67476,-27.19187 -2.862117,-5.68017 -5.72354,-11.71275 -10.660239,-15.91816 0,0 6.099156,-3.85766 6.099156,-3.85766 z" />
    <path
       style="fill:#dddddd;fill-opacity:1;stroke:none"
       id="path3614"
       d="m 115.24934,927.57083 c -3.48985,4.4321 -6.22679,9.35051 -8.81349,14.34438 -1.79545,3.64851 -3.22781,7.46461 -4.27476,11.39359 -0.59991,2.25133 -1.10787,4.50496 -1.22068,6.84163 -0.0475,0.98415 0.0651,1.96951 0.0977,2.95427 0.34405,3.35049 1.5575,6.49497 4.0502,8.84461 1.38789,1.30823 2.15783,1.56567 3.81944,2.43259 3.7825,1.52295 7.87697,2.30419 11.95313,2.05046 0,0 -5.64656,4.12403 -5.64656,4.12403 l 0,0 c -4.09713,-0.055 -8.18367,-0.8798 -11.96081,-2.48023 -1.71659,-0.9607 -2.5014,-1.25277 -3.933552,-2.65602 -2.558816,-2.50718 -3.810229,-5.80707 -4.118711,-9.32279 -0.01837,-1.02831 -0.116012,-2.05826 -0.0551,-3.08492 0.143479,-2.41933 0.664536,-4.66939 1.30128,-7.00065 1.080202,-3.95489 2.521407,-7.80757 4.273073,-11.51325 2.36752,-4.82154 4.84363,-9.59388 7.91759,-14.01185 0,0 6.61129,-2.91585 6.61129,-2.91585 z" />
    <path
       style="fill:#dddddd;fill-opacity:1;stroke:none"
       id="path3616"
       d="m 91.027623,953.37735 c 6.37243,-0.68287 12.702877,-1.68883 19.026737,-2.71983 4.33255,-0.71335 8.63191,-1.60689 12.93453,-2.47785 0,0 -5.05818,3.82421 -5.05818,3.82421 l 0,0 c -4.24604,0.77576 -8.48792,1.57458 -12.74096,2.3116 -6.658824,1.12246 -13.323163,2.21668 -19.972087,3.39445 0,0 5.80996,-4.33258 5.80996,-4.33258 z" />
    <path
       style="fill:#dddddd;fill-opacity:1;stroke:none"
       id="path3618"
       d="m 131.69357,952.95248 c -0.15717,3.6095 -0.19653,7.21887 -0.43483,10.82517 -0.32341,4.38391 -0.96472,8.7331 -1.55382,13.08627 -0.29658,3.77807 1.14357,2.17149 -6.53509,4.51547 -0.28787,0.088 0.14479,-0.5843 0.21328,-0.8774 0.10115,-0.4329 0.1971,-0.8669 0.29566,-1.3004 0.89193,-4.92062 2.50833,-9.64819 4.25208,-14.32033 1.3695,-3.59041 2.89146,-7.02199 5.55917,-9.8325 2.5488,-1.92261 5.64187,-5.58481 8.83799,-4.09732 1.33049,0.61921 2.25781,1.82044 3.14672,2.9243 2.31428,3.11291 3.4895,6.75499 4.23541,10.51132 0.26429,1.48691 0.4144,2.98978 0.51862,4.49524 0.0392,0.5655 -0.0645,1.69918 0.26304,2.22939 -8.12869,3.79167 -6.84083,4.39094 -4.83231,0.43206 1.05682,-2.08302 2.15529,-4.10794 3.33372,-6.12637 1.93055,-2.87146 4.04322,-5.80244 6.8586,-7.88743 0.3741,-0.27706 0.78538,-0.50003 1.17806,-0.75005 1.73871,-0.91115 6.10269,-5.03638 9.28133,-3.57653 1.2496,0.5739 1.94615,1.68246 2.67998,2.77425 1.89554,3.80756 2.5582,8.07496 3.1671,12.24355 0.42324,2.82234 0.49684,5.67844 0.78544,8.51307 0,0 -6.24441,3.24275 -6.24441,3.24275 l 0,0 c -0.15507,-2.86705 -0.14772,-5.74591 -0.52904,-8.59791 -0.55581,-4.05424 -1.19889,-8.22225 -3.21441,-11.84528 -0.68643,-0.93276 -1.30523,-1.9026 -2.47668,-2.27128 -0.29393,-0.0925 -0.60846,-0.12544 -0.91657,-0.12041 -0.32028,0.005 -1.20917,0.33781 -0.94906,0.15086 1.56796,-1.12692 3.29506,-2.01405 4.94259,-3.02108 -0.42607,0.22681 -0.87338,0.41757 -1.27821,0.6804 -2.96398,1.92427 -5.14693,4.90651 -7.15473,7.73965 -1.14971,1.96617 -2.2353,3.90573 -3.16015,5.98829 -0.21918,0.49354 -0.4395,0.98671 -0.64612,1.48565 -0.13593,0.32824 -0.0796,0.80758 -0.38127,0.9953 -2.16397,1.3467 -4.53928,2.31958 -6.80893,3.47937 -0.20736,-0.81275 -0.0989,-0.20796 -0.0988,-1.34095 8e-5,-1.89528 -0.14089,-3.79154 -0.40226,-5.66816 -0.65371,-3.6675 -1.72395,-7.22318 -4.10018,-10.17818 -0.82841,-0.93108 -1.73593,-2.07542 -3.02119,-2.40915 -0.27653,-0.0718 -1.0865,0.1481 -0.85682,-0.0218 1.3669,-1.0113 7.72236,-4.75351 4.35252,-2.66013 -2.97422,2.68565 -4.58689,6.05014 -6.06634,9.72991 -1.75324,4.54502 -3.34345,9.17809 -3.93603,14.03889 -0.0637,0.41518 -0.13206,0.82967 -0.19109,1.24553 -0.0384,0.27014 0.12817,0.66418 -0.10098,0.81229 -2.11144,1.36472 -4.43681,2.36592 -6.65293,3.55312 -0.0339,0.018 0.0932,-0.01 0.10583,-0.046 0.19727,-0.5675 0.10133,-1.2165 0.30948,-1.7757 0.77347,-4.35204 1.53753,-8.71564 1.80434,-13.13478 0.16115,-3.5137 0.19875,-7.03044 -0.0372,-10.54256 0,0 6.45849,-3.29077 6.45849,-3.29077 z" />
    <path
       style="fill:#dddddd;fill-opacity:1;stroke:none"
       id="path3620"
       d="m 189.20281,910.36067 c -0.43577,7.18843 -0.45355,14.39443 -0.62219,21.59219 -0.24378,11.26791 -0.97181,22.5123 -2.21425,33.71237 -0.55671,4.74154 -1.06669,9.48878 -1.42764,14.24946 0,0 -6.19987,3.0729 -6.19987,3.0729 l 0,0 c 0.71009,-4.88054 1.50878,-9.74787 2.18598,-14.6333 0.54884,-4.05208 0.8482,-5.99155 1.25117,-10.13001 0.76314,-7.83752 1.07648,-15.71119 1.11536,-23.58376 -0.011,-7.00483 -0.0549,-14.01786 -0.50456,-21.01073 0,0 6.416,-3.26912 6.416,-3.26912 z" />
    <path
       style="fill:#dddddd;fill-opacity:1;stroke:none"
       id="path3622"
       d="m 227.00356,929.22738 c -3.6721,-0.16562 -7.35005,-0.17927 -11.02533,-0.19145 -2.29828,0.0423 -4.60417,-0.0656 -6.89822,0.13225 -0.49648,0.0428 -0.99855,0.0739 -1.48248,0.19289 -0.36638,0.0901 -1.37448,0.61703 -1.04745,0.42889 1.76537,-1.01554 3.57971,-1.94349 5.36956,-2.91523 -0.18179,0.24495 -0.41275,0.46016 -0.54537,0.73486 -0.68844,1.42602 -0.68342,3.29123 -0.76056,4.82295 -0.0833,1.65323 -0.0881,3.17694 -0.11098,4.83569 -0.004,4.30265 0.0727,8.60522 0.19842,12.90594 0.0605,0.58572 -0.14499,3.43294 0.85079,3.54618 0.14908,0.017 0.29674,-0.0445 0.44511,-0.0668 2.55201,-0.98086 5.17215,-1.68792 7.85122,-2.22299 3.1139,-0.63204 6.10634,-0.75042 9.20718,-0.057 2.83754,0.94638 4.6441,3.49441 6.42382,5.75588 1.49886,2.01967 2.97932,4.18359 3.58408,6.66732 0.1011,0.4152 0.1337,0.84413 0.20054,1.26621 -0.056,3.74175 -1.60028,5.42512 -4.34556,7.72625 -3.66769,2.28961 -4.67489,2.97343 -9.97073,5.5615 -0.84235,0.41166 -1.77249,0.61395 -2.67185,0.8788 -3.21362,0.9466 -6.44093,1.4508 -9.75267,1.902 -5.33659,0.5062 -10.67649,0.9718 -15.99743,1.6266 0,0 5.37595,-3.99739 5.37595,-3.99739 l 0,0 c 5.24843,-0.51751 10.513,-0.86479 15.75268,-1.47168 3.34057,-0.51656 6.60833,-1.07264 9.83303,-2.11916 0.91399,-0.29663 3.23044,-1.79748 2.70676,-0.9918 -0.76082,1.17053 -2.39086,1.44706 -3.52856,2.25615 -0.58921,0.41901 1.25278,-0.72212 1.87917,-1.08318 2.54788,-1.98585 4.3056,-3.60424 4.48565,-7.00919 -0.0394,-0.39088 -0.0403,-0.78757 -0.11824,-1.17262 -0.49052,-2.42478 -1.94902,-4.5338 -3.36833,-6.49647 -1.71053,-2.14865 -3.53567,-4.47958 -6.27578,-5.28002 -2.97042,-0.62026 -5.95273,-0.43287 -8.91471,0.20658 -1.57559,0.34711 -1.86265,0.37921 -3.40166,0.84114 -1.30789,0.39257 -2.60591,1.01665 -3.94514,1.29658 -0.29925,0.0625 -0.60922,0.0518 -0.91384,0.0778 -0.22324,-0.0761 -0.46669,-0.10834 -0.66973,-0.22838 -1.35352,-0.80024 -0.84283,-3.02504 -0.90829,-4.25469 0.0643,-4.34164 0.0554,-8.6838 0.0225,-13.02572 -0.0131,-1.43015 -0.0376,-3.35346 -0.0253,-4.79878 0.0136,-1.61213 -0.0697,-3.42327 0.37142,-4.99906 0.0964,-0.34443 0.28196,-0.65742 0.42294,-0.98613 2.27866,-1.35588 4.50945,-2.79566 6.83599,-4.06765 0.5265,-0.28786 1.99371,-0.32344 2.47937,-0.33884 2.24368,-0.0712 4.48859,0.058 6.73247,0.0146 3.85104,-0.0127 7.70409,-0.0329 11.55233,-0.19145 0,0 -5.90276,4.28862 -5.90276,4.28862 z" />
    <path
       style="fill:#dddddd;fill-opacity:1;stroke:none"
       id="path3624"
       d="m 55.756133,1003.1446 c 4.214403,0.1744 8.434783,0.1655 12.652099,0.1543 2.001383,-0.01 4.002513,-0.039 6.003592,-0.072 0,0 -5.610651,4.0764 -5.610651,4.0764 l 0,0 c -1.935458,-0.033 -3.870977,-0.065 -5.806761,-0.072 -4.358972,-0.012 -8.720374,-0.013 -13.076741,0.1542 0,0 5.838462,-4.2418 5.838462,-4.2418 z" />
    <path
       style="fill:#dddddd;fill-opacity:1;stroke:none"
       id="path3626"
       d="m 67.323764,996.04539 c 0.474288,2.3103 1.100809,4.58361 1.568393,6.89531 0.408692,2.2632 0.644884,4.549 0.778529,6.8432 0.02911,0.7461 0.04214,1.4926 0.05452,2.2391 0,0 -6.404966,3.2671 -6.404966,3.2671 l 0,0 c 0.0058,-0.7458 0.01249,-1.4916 -0.0049,-2.2373 -0.04169,-2.2816 -0.181128,-4.5659 -0.586883,-6.8152 -0.46283,-2.2947 -1.047877,-4.5756 -1.834878,-6.78091 0,0 6.430187,-3.4113 6.430187,-3.4113 z" />
    <path
       style="fill:#dddddd;fill-opacity:1;stroke:none"
       id="path3628"
       d="m 91.274495,1001.1197 c -0.199992,0.069 -0.404727,0.1259 -0.599977,0.2076 -0.953833,0.3988 -1.083645,0.5308 -2.047156,1.0842 -0.436125,0.2505 -1.752717,0.9875 -1.311488,0.7461 4.917802,-2.6908 6.094027,-3.65901 3.450442,-1.6749 -0.899474,0.855 -2.88266,2.2148 -2.827549,3.6469 1.56969,1.5956 4.143677,1.7816 6.237706,2.0918 2.649647,0.2919 5.321142,0.4684 7.985347,0.3368 0,0 -5.675218,4.1429 -5.675218,4.1429 l 0,0 c -2.66347,-0.013 -5.327116,-0.1809 -7.972309,-0.4954 -2.019018,-0.3164 -4.892975,-0.5821 -6.471132,-2.0498 -0.195228,-0.1816 -0.331353,-0.4178 -0.497029,-0.6267 -0.05406,-0.2212 -0.165399,-0.436 -0.162188,-0.6637 0.01852,-1.3136 2.061744,-3.0174 2.908128,-3.8003 3.375092,-2.6389 0.970473,-0.8372 8.436779,-5.28511 1.374639,-0.8189 2.787949,-1.6745 4.363031,-2.0356 0,0 -5.817387,4.37521 -5.817387,4.37521 z" />
    <path
       style="fill:#dddddd;fill-opacity:1;stroke:none"
       id="path3630"
       d="m 111.8902,999.53779 c -1.0386,-0.051 -2.16701,0.2232 -3.10026,0.69231 -0.26408,0.1327 -1.00519,0.6211 -0.74526,0.4804 1.82968,-0.99021 3.63763,-2.02011 5.45644,-3.03011 -1.46585,1.5239 -1.22622,2.2823 0.24927,3.64261 1.48013,1.3584 3.52462,1.8168 4.98836,3.1756 0.46108,0.7672 0.29246,1.5674 -0.51887,2.0789 -5.18413,3.2683 -6.03784,3.9203 -10.51444,5.3963 -1.64394,0.443 -3.27182,0.9348 -4.88922,1.4652 0,0 5.51235,-4.268 5.51235,-4.268 l 0,0 c 1.59681,-0.4822 3.20394,-0.927 4.79766,-1.4196 0.58998,-0.2155 1.18846,-0.4091 1.76997,-0.6465 2.34135,-0.956 5.01733,-2.7423 -3.28406,2.1485 -0.45647,0.269 1.82409,-0.8902 0.99148,-0.9724 -1.40756,-1.3687 -3.45115,-1.8773 -4.89279,-3.2267 -1.64669,-1.5422 -2.30995,-2.7035 -0.83091,-4.6801 3.58475,-2.21031 6.62296,-5.06161 10.90019,-5.11571 0,0 -5.88991,4.2793 -5.88991,4.2793 z" />
    <path
       style="fill:#dddddd;fill-opacity:1;stroke:none"
       id="path3632"
       d="m 130.62771,997.08389 c -1.98519,-0.1562 -3.8227,0.6181 -5.46988,1.6462 11.11818,-5.9629 4.51656,-3.4664 3.76973,-1.2376 -0.15372,0.4587 -0.0445,0.5147 0.12068,0.9481 1.48075,1.69791 3.77102,2.32991 5.70387,3.38031 0.23156,0.1722 0.51534,0.2905 0.69467,0.5166 1.41878,1.7886 -1.90958,4.2123 -2.97509,5.1748 -1.27979,1.0587 -2.58856,2.0808 -3.9062,3.0917 0,0 -6.47559,2.5756 -6.47559,2.5756 l 0,0 c 1.35412,-0.9955 2.67367,-2.0324 4.0009,-3.0635 0.46796,-0.4196 3.89966,-3.1522 3.30364,-3.9576 -0.14848,-0.2007 -0.39243,-0.3086 -0.58864,-0.4629 -2.04903,-1.1708 -4.46078,-1.8767 -6.02721,-3.7277 -0.30055,-0.6348 -0.47416,-0.7477 -0.38323,-1.4468 0.46333,-3.56271 8.38386,-3.87891 8.25521,-6.23411 1.84003,-0.9555 3.78588,-1.5314 5.8799,-1.4918 0,0 -5.90276,4.2887 -5.90276,4.2887 z" />
    <path
       style="fill:#dddddd;fill-opacity:1;stroke:none"
       id="path3634"
       d="m 146.41768,986.77849 c 1.69198,-0.4467 3.46193,-0.6197 5.20836,-0.6061 2.21344,0.285 3.80197,1.0362 5.21357,2.7696 1.16517,1.6863 1.3064,3.2878 0.89855,5.2515 -0.5094,1.4905 -1.55115,2.6074 -2.90179,3.3926 -5.6226,3.26851 -4.78921,2.82431 -7.74027,4.35611 1.92781,-1.1005 3.8736,-2.17021 5.78346,-3.30161 0.10038,-0.059 -0.52322,0 -0.16293,-0.3997 0.13091,-0.1436 1.54298,0.2437 1.70313,0.2851 1.75265,0.5774 2.43667,1.0415 2.98306,2.82201 0.51337,2.2829 -0.0231,3.6371 -1.37774,5.4699 -1.21239,1.3908 -2.69041,2.5222 -4.28807,3.4365 -6.74036,3.8575 -4.82825,2.8727 -8.24358,4.5931 -1.14896,0.5527 -2.3624,0.9193 -3.60245,1.1944 0,0 5.69936,-4.3505 5.69936,-4.3505 l 0,0 c 1.17517,-0.3074 2.32484,-0.6949 3.40939,-1.2513 2.85726,-1.4407 0.79393,-0.429 -3.80603,2.3304 -0.38735,0.2323 0.80072,-0.4199 1.18496,-0.6573 0.61647,-0.381 1.68941,-1.157 2.241,-1.6343 0.32,-0.2768 0.60821,-0.5884 0.91232,-0.8826 1.33457,-1.5709 2.02265,-2.6885 1.56726,-4.8008 -0.43143,-1.4696 -1.12115,-1.7978 -2.57842,-2.1781 -0.40703,-0.076 -1.58529,-0.1359 -1.91075,-0.362 -0.20621,-0.1432 -0.37843,-0.3472 -0.48987,-0.5722 -1.15451,-2.33091 22.58333,-11.64721 6.5654,-4.21781 2.46944,-1.2239 0.7818,-0.4079 -4.44058,2.68131 -0.32059,0.1896 0.65386,-0.35841 0.96638,-0.56101 0.62913,-0.408 1.17647,-0.8106 1.62522,-1.4235 0.20034,-0.2736 0.32583,-0.5948 0.48873,-0.8923 0.49294,-1.7263 0.407,-3.1278 -0.60715,-4.6525 -1.24317,-1.4506 -2.88993,-2.216 -4.81207,-2.2722 -1.79596,0.085 -3.57475,0.3288 -5.30416,0.8366 0,0 5.81571,-4.4033 5.81571,-4.4033 z" />
    <path
       style="fill:#dddddd;fill-opacity:1;stroke:none"
       id="path3636"
       d="m 173.11851,1000.672 c 3.47833,0.1438 6.96092,0.1517 10.44168,0.1548 2.80019,-0.021 1.449,-0.01 4.05358,-0.041 0,0 -5.56323,4.0419 -5.56323,4.0419 l 0,0 c -2.5229,-0.034 -1.20915,-0.019 -3.94126,-0.041 -3.62286,0 -7.24713,0.017 -10.86782,0.1548 0,0 5.87705,-4.27 5.87705,-4.27 z" />
    <path
       style="fill:#dddddd;fill-opacity:1;stroke:none"
       id="path3638"
       d="m 182.35423,995.11499 c -0.15412,2.7195 -0.16252,5.44431 -0.17092,8.16731 -0.003,1.8637 0.0386,3.727 0.0806,5.5901 0,0 -6.3062,3.2132 -6.3062,3.2132 l 0,0 c 0.0417,-1.8905 0.0832,-3.7812 0.0806,-5.6723 -0.008,-2.6649 -0.0135,-5.332 -0.17091,-7.99311 0,0 6.48681,-3.3052 6.48681,-3.3052 z" />
    <path
       style="fill:#dddddd;fill-opacity:1;stroke:none"
       id="path3648"
       d="m 203.89302,993.64189 c -0.86533,-0.01 -1.7898,0.2429 -2.5754,0.612 -0.2526,0.1187 -0.97543,0.5429 -0.73318,0.4044 1.81016,-1.0355 3.62462,-2.0634 5.43694,-3.0951 -1.29484,0.831 -2.14791,2.1127 -2.84479,3.4537 -0.50138,1.1905 -0.82926,2.2383 -0.37415,3.4906 1.03062,1.77561 3.09623,2.64811 4.88548,3.49411 1.47262,0.6156 3.08506,1.0848 4.293,2.1686 1.33516,1.6174 -0.16672,2.713 -1.44133,3.6804 -4.17785,3.1501 -8.97781,4.8307 -13.62581,6.9991 -0.32237,0.1447 -0.64473,0.2894 -0.9671,0.4342 0,0 5.56041,-4.4071 5.56041,-4.4071 l 0,0 c 0.30991,-0.1368 0.61983,-0.2736 0.92974,-0.4104 1.21405,-0.5329 2.44889,-1.0207 3.65635,-1.5683 2.25301,-1.0217 7.64832,-3.9776 -2.14214,1.5546 0.46509,-0.3105 2.08526,-1.2172 2.17484,-1.8633 0.0347,-0.2506 -0.16287,-0.4258 -0.29249,-0.5987 -1.15923,-1 -2.67896,-1.4492 -4.03745,-2.1042 -1.94936,-0.9803 -4.11777,-1.9269 -5.27012,-3.8769 -0.10211,-0.2425 -0.2325,-0.475 -0.30635,-0.7275 -0.31379,-1.073 0.0836,-2.27691 0.41065,-3.29521 0.65515,-1.432 1.51047,-2.8103 2.71766,-3.8413 3.16122,-1.8282 6.52577,-4.7058 10.44801,-4.7923 0,0 -5.90277,4.2886 -5.90277,4.2886 z" />
    <path
       style="fill:#dddddd;fill-opacity:1;stroke:none"
       id="path3650"
       d="m 219.29328,991.07909 c 0.66105,3.1693 1.52932,6.2713 2.64663,9.30891 0.68894,1.7135 1.41345,3.4246 2.32806,5.0331 0.24522,0.4312 0.87727,1.4602 1.28765,1.8607 0.1389,0.1356 0.32904,0.206 0.49356,0.309 2.35141,-1.5235 -1.98969,1.3034 -5.461,2.8678 -0.29245,0.1318 0.4292,-0.4801 0.60469,-0.7486 0.84517,-1.2934 1.3976,-2.7807 1.97463,-4.2022 1.07357,-2.7762 1.57233,-5.71431 2.35369,-8.57201 0.34056,-1.0639 0.58502,-2.1531 0.84554,-3.2381 0,0 6.46821,-3.0938 6.46821,-3.0938 l 0,0 c -0.30075,1.1022 -0.5116,2.2274 -0.90807,3.3033 -0.96147,2.8574 -1.46867,5.8524 -2.49798,8.69391 -1.33498,3.6947 -3.76902,10.7274 -9.48036,8.8119 -1.98885,-1.9956 -2.77718,-5.2394 -3.94092,-7.7295 -1.14211,-2.9975 -2.05562,-6.06071 -3.08694,-9.09481 0,0 6.37261,-3.5096 6.37261,-3.5096 z" />
    <path
       style="fill:#dddddd;fill-opacity:1;stroke:none"
       id="path3652"
       d="m 245.5839,996.58279 c -3.02008,-0.217 -5.4526,0.3975 -8.20378,1.5893 -0.42088,0.2481 -1.69309,0.9756 -1.26264,0.7444 8.00592,-4.2992 5.65847,-3.6554 3.98281,-1.8453 -0.75493,0.8155 -1.21681,1.7318 -1.649,2.7385 -0.65775,1.93651 -0.70761,3.93751 -0.27228,5.91891 0.49939,1.6758 1.5595,2.9572 3.09663,3.7624 0.22584,0.049 0.44748,0.1249 0.67753,0.1466 0.54571,0.051 0.87954,-0.028 1.38132,-0.2511 0.22477,-0.1 0.85719,-0.4832 0.64251,-0.3631 -5.74267,3.2129 -7.00643,4.5869 -4.9538,2.5235 0.99878,-1.3159 1.55377,-2.8759 1.50183,-4.5265 0.01,-0.5488 -0.42429,-0.8875 -0.59752,-1.3603 -0.89133,-2.4328 6.03621,-4.4028 6.9566,-4.9225 2.10351,-0.4206 4.2322,-0.696 6.33103,-1.14001 0,0 -5.60338,4.23991 -5.60338,4.23991 l 0,0 c -2.13359,0.3881 -4.30628,0.6588 -6.3756,1.3254 1.82644,-1.1168 3.68139,-2.1882 5.47932,-3.3504 0.1554,-0.1004 -0.52849,0.065 -0.49691,0.2475 0.0989,0.5713 0.77529,1.023 0.68328,1.6664 0.13547,1.7759 -0.35425,3.5014 -1.30437,5.0097 -1.87289,2.9126 -0.40387,0.8713 -7.24418,4.7404 -0.96305,0.5447 -2.13998,0.3265 -3.09146,-0.082 -1.6158,-1.0211 -2.76224,-2.4612 -3.34486,-4.2998 -0.4783,-2.1041 -0.49477,-4.2088 0.0907,-6.3039 1.88052,-5.08141 5.78832,-6.40461 10.82842,-8.91391 1.32649,-0.5032 1.75908,-0.7194 3.18104,-1.0336 1.78536,-0.3945 3.62534,-0.4467 5.44377,-0.5305 0,0 -5.87705,4.2699 -5.87705,4.2699 z" />
    <path
       style="fill:#dddddd;fill-opacity:1;stroke:none"
       id="path3656"
       d="m 102.78944,53.109436 c -3.088791,-1.55997 -6.592049,-2.044619 -9.985983,-2.469797 -3.355998,-0.121072 -6.444452,0.710636 -9.476253,2.107498 -1.271181,0.585679 -2.32905,1.784009 -3.718849,1.949476 -1.296408,0.154348 4.355703,-2.82138 3.417403,-1.913587 -1.250246,1.209598 -2.918054,1.894709 -4.377081,2.842064 -7.623941,5.297618 -14.685046,11.528565 -20.484932,18.807614 -1.066918,1.339017 -2.027033,2.759757 -3.04055,4.139635 -3.629539,5.583975 -6.767402,11.743393 -7.714305,18.425159 -0.548596,3.871132 -0.17881,5.564092 0.154814,9.436092 1.498956,8.4328 5.495556,15.38984 11.466664,21.46594 1.270576,1.29292 2.669628,2.45297 4.004442,3.67946 7.953238,6.32771 17.021678,11.21685 26.686614,14.37863 1.905719,0.62344 3.856807,1.09854 5.785211,1.64781 6.976805,1.65438 14.160095,2.90479 21.352715,2.08869 4.32974,-0.49128 5.59596,-1.10752 9.7278,-2.40712 1.53994,-0.73295 3.08409,-1.45715 4.61983,-2.19886 0.94569,-0.45674 -3.43299,2.21717 -2.84961,1.3439 1.00813,-1.50908 2.88412,-2.20953 4.23644,-3.41985 2.6743,-2.39348 4.99392,-4.97914 7.1752,-7.82379 1.05796,-1.3797 2.00117,-2.84373 3.00175,-4.2656 3.46395,-5.49893 5.96754,-11.53085 7.63513,-17.80437 1.0157,-3.82111 1.14654,-5.16068 1.79326,-9.03434 0.72592,-5.736018 0.41899,-11.541447 -1.60972,-17.000621 -1.34658,-3.623608 -2.29373,-4.855776 -4.28817,-8.207059 -5.23549,-7.426697 -12.30111,-13.289795 -20.18937,-17.736802 -1.52188,-0.857961 -3.11288,-1.587084 -4.66932,-2.380625 -5.18774,-2.606972 -10.74951,-4.07554 -16.41346,-5.165832 0,0 7.35537,-5.120545 7.35537,-5.120545 l 0,0 c 1.25224,0.271157 2.51646,0.491934 3.75673,0.813472 4.32111,1.120249 8.47995,2.791336 12.47536,4.768522 1.5543,0.822329 3.1429,1.582868 4.6629,2.466985 7.93306,4.614297 15.10726,10.559809 20.53469,17.994814 2.12857,3.43378 3.08012,4.59356 4.51545,8.334407 2.13702,5.569633 2.47866,11.510497 1.74049,17.384824 -0.63108,3.81141 -0.80522,5.39059 -1.78323,9.15184 -1.658,6.37633 -4.18252,12.49903 -7.64536,18.11075 -2.52475,3.66138 -3.3726,5.13635 -6.35387,8.46919 -6.6757,7.46295 -15.30239,12.80625 -24.53453,16.59944 -4.27704,1.25269 -5.38143,1.79984 -9.84021,2.21501 -7.19904,0.67031 -14.373345,-0.66388 -21.314138,-2.45 -1.932539,-0.57222 -3.888548,-1.07045 -5.797618,-1.71667 -9.729334,-3.29337 -18.895148,-8.27087 -27.007246,-14.55329 -1.368652,-1.24038 -2.80137,-2.41354 -4.105958,-3.72114 -6.24409,-6.25847 -10.152687,-13.18353 -11.833684,-21.88848 -0.398913,-3.99708 -0.803156,-5.67358 -0.264188,-9.68687 0.910932,-6.783044 4.034909,-13.067203 7.638754,-18.778952 1.021033,-1.407406 1.986079,-2.857181 3.063098,-4.22222 5.767954,-7.310443 12.80006,-13.593491 20.343398,-19.009186 7.052396,-4.706284 5.226579,-3.615253 15.875318,-9.591152 4.321435,-2.42512 8.879494,-4.157225 13.904074,-3.915017 3.62856,0.426186 7.29958,1.002508 10.66507,2.496546 0,0 -8.29034,5.364007 -8.29034,5.364007 z"
       transform="translate(0,572.36218)" />
    <path
       style="fill:#dddddd;fill-opacity:1;stroke:none"
       id="path3658"
       d="M 54.80384,47.745616 C 52.908653,42.060255 50.319663,36.645419 47.533814,31.351402 44.565539,25.735363 41.152939,20.375427 37.996319,14.866524 c 0,0 7.979182,-4.579505 7.979182,-4.579505 l 0,0 c 2.908733,5.650104 6.121594,11.123917 9.255553,16.650762 2.897144,5.260421 5.53006,10.641187 8.153303,16.040685 0,0 -8.580517,4.76715 -8.580517,4.76715 z"
       transform="translate(0,572.36218)" />
    <path
       style="fill:#dddddd;fill-opacity:1;stroke:none"
       id="path3660"
       d="m 109.08298,38.886097 c 0.22942,-0.334432 0.42449,-0.695225 0.68825,-1.003295 0.96184,-1.123402 2.51334,-2.450808 3.57946,-3.357112 3.57765,-3.041332 7.33565,-5.839842 11.09249,-8.65304 6.88024,-5.19578 13.73743,-10.421942 20.60926,-15.62883 0,0 7.72068,-3.0721787 7.72068,-3.0721787 l 0,0 c -6.84553,5.1246457 -13.64843,10.3049777 -20.4051,15.5464227 -3.54643,2.701392 -7.09242,5.384781 -10.45345,8.317116 -0.2862,0.249688 -2.72679,2.442866 -3.24224,2.992337 -0.22875,0.243851 -0.40678,0.530744 -0.61017,0.796115 0,0 -8.97918,4.062465 -8.97918,4.062465 z"
       transform="translate(0,572.36218)" />
    <path
       style="fill:#dddddd;fill-opacity:1;stroke:none"
       id="path3662"
       d="m 162.45779,46.838024 c 5.86648,-1.74572 11.62568,-3.798713 17.36035,-5.931619 10.79081,-4.054858 21.95802,-6.968278 33.11588,-9.806269 3.81096,-1.019574 7.66333,-1.862268 11.52441,-2.664233 0,0 -7.26689,5.501687 -7.26689,5.501687 l 0,0 c -3.72736,0.712682 -7.44463,1.474463 -11.1237,2.411264 -11.17992,2.710393 -22.33005,5.667002 -33.05225,9.884852 -6.07689,2.320826 -12.18763,4.545137 -18.35695,6.609291 0,0 7.79915,-6.004973 7.79915,-6.004973 z"
       transform="translate(0,572.36218)" />
    <path
       style="fill:#dddddd;fill-opacity:1;stroke:none"
       id="path3664"
       d="m 181.80458,77.765745 c 7.56314,1.130462 15.06577,2.626901 22.61833,3.839607 11.10191,1.661317 22.30881,2.360738 33.51437,2.817672 0,0 -6.89724,4.95424 -6.89724,4.95424 l 0,0 c -11.12473,-0.75846 -22.25141,-1.596911 -33.31036,-3.055535 -7.9433,-1.045246 -15.89156,-2.532896 -23.91065,-2.754141 0,0 7.98555,-5.801843 7.98555,-5.801843 z"
       transform="translate(0,572.36218)" />
    <path
       style="fill:#dddddd;fill-opacity:1;stroke:none"
       id="path3666"
       d="m 179.18812,121.37358 c 1.68806,3.07314 4.3703,5.44444 6.94321,7.7569 3.84353,3.45446 3.71025,3.26779 7.84599,6.6797 7.00125,5.72279 14.38477,10.95775 21.29132,16.79702 0,0 -7.85187,4.86691 -7.85187,4.86691 l 0,0 c -6.44594,-6.22436 -13.60895,-11.62042 -20.65895,-17.13204 -4.75568,-3.73336 -3.68205,-2.85061 -8.16635,-6.51877 -2.83418,-2.31835 -5.7524,-4.6218 -7.96779,-7.57327 0,0 8.56444,-4.87645 8.56444,-4.87645 z"
       transform="translate(0,572.36218)" />
    <path
       style="fill:#dddddd;fill-opacity:1;stroke:none"
       id="path3668"
       d="m 145.90829,153.43688 c 2.94307,6.71497 4.35762,13.93025 5.94474,21.04776 2.70459,12.03476 5.22694,24.10842 7.76828,36.17835 0.27442,1.28162 0.54883,2.56324 0.82325,3.84486 0,0 -7.88043,4.19698 -7.88043,4.19698 l 0,0 c -0.20229,-1.31838 -0.40459,-2.63675 -0.60688,-3.95513 -2.03521,-12.1831 -4.3544,-24.31799 -7.49673,-36.27201 -1.83244,-6.85988 -3.38221,-13.96788 -7.06419,-20.13148 0,0 8.51196,-4.90933 8.51196,-4.90933 z"
       transform="translate(0,572.36218)" />
    <path
       style="fill:#dddddd;fill-opacity:1;stroke:none"
       id="path3670"
       d="m 106.40702,172.15323 c -0.22114,6.3785 -0.82066,12.72497 -1.51605,19.06758 -1.43481,10.7503 -2.98907,21.48783 -4.73221,32.19308 0,0 -7.992769,3.88764 -7.992769,3.88764 l 0,0 c 2.254234,-10.65079 3.895002,-21.42849 5.036804,-32.25459 0.48858,-6.11828 0.962598,-12.27109 0.390181,-18.40273 0,0 8.814044,-4.49098 8.814044,-4.49098 z"
       transform="translate(0,572.36218)" />
    <path
       style="fill:#dddddd;fill-opacity:1;stroke:none"
       id="path3672"
       d="m 70.941127,164.39819 c -3.9474,5.20746 -7.862299,10.44786 -11.765222,15.69196 -6.40572,8.44825 -12.489105,17.13014 -18.581128,25.80432 -0.592075,0.85836 -1.18415,1.71672 -1.776224,2.57508 0,0 -8.375991,3.63228 -8.375991,3.63228 l 0,0 c 0.656373,-0.88814 1.312745,-1.77629 1.969118,-2.66443 6.389374,-8.57989 12.584617,-17.30355 18.893588,-25.94275 3.570301,-5.0061 7.129604,-10.03096 10.608469,-15.09539 0,0 9.02739,-4.00107 9.02739,-4.00107 z"
       transform="translate(0,572.36218)" />
    <path
       style="fill:#dddddd;fill-opacity:1;stroke:none"
       id="path3674"
       d="m 34.791062,138.22792 c -5.854525,0.27838 -11.648493,1.3354 -17.394951,2.43549 -4.103629,0.85516 -8.0783218,2.19359 -12.0632505,3.46906 0,0 7.1003005,-5.49411 7.1003005,-5.49411 l 0,0 c 3.96598,-1.20358 7.925321,-2.45276 11.990638,-3.28882 6.070456,-1.18477 12.16922,-2.35964 18.335378,-2.91079 0,0 -7.968115,5.78917 -7.968115,5.78917 z"
       transform="translate(0,572.36218)" />
    <path
       style="fill:#dddddd;fill-opacity:1;stroke:none"
       id="path3676"
       d="M 24.877662,95.89564 C 21.040351,92.876343 16.32453,91.18513 11.875186,89.292364 8.1167395,87.735422 4.3088386,86.306681 0.53204488,84.795559 c 0,0 7.46496042,-4.99095 7.46496042,-4.99095 l 0,0 c 3.7360887,1.576816 7.4989537,3.081298 11.2842287,4.536895 4.691909,1.869099 9.480719,3.579318 13.869812,6.110544 0,0 -8.273384,5.443592 -8.273384,5.443592 z"
       transform="translate(0,572.36218)" />
    <path
       style="fill:#dddddd;fill-opacity:1;stroke:none"
       id="path3678"
       d="M 35.386725,63.385276 C 30.811661,58.053489 26.007623,52.915351 21.201635,47.790984 16.848106,43.152627 12.200566,38.812389 7.5352764,34.494077 c 0,0 7.0820076,-4.3709 7.0820076,-4.3709 l 0,0 c 4.62059,4.395234 9.23677,8.795325 13.779072,13.271813 5.087903,5.030272 10.130624,10.107983 15.419471,14.929463 0,0 -8.429102,5.060823 -8.429102,5.060823 z"
       transform="translate(0,572.36218)" />
    <path
       style="fill:#dddddd;fill-opacity:1;stroke:none"
       id="path3680"
       d="m 84.476109,35.494605 c 4.585626,-7.470599 8.103675,-15.565402 11.786396,-23.506988 3.646376,-7.7916877 1.82625,-3.967044 5.455915,-11.47605336 0,0 7.58451,-3.43833624 7.58451,-3.43833624 l 0,0 c -3.74216,7.5160979 -1.89546,3.68927731 -5.53308,11.4838497 -3.40695,7.6717269 -6.76234,15.3678209 -10.274667,22.9913799 0,0 -9.019074,3.946148 -9.019074,3.946148 z"
       transform="translate(0,572.36218)" />
    <path
       style="fill:#dddddd;fill-opacity:1;stroke:none"
       id="path3682"
       d="m 320.84059,50.205261 c -1.3698,-1.864647 -3.37396,-2.856314 -5.41085,-3.813583 -2.1357,-0.929182 -4.44976,-1.481777 -6.78349,-1.378322 -0.11634,-0.45639 -2.85136,1.274195 -2.48308,1.071056 2.53785,-1.399834 5.00511,-2.927875 7.57011,-4.277313 0.28829,-0.151667 -0.49159,0.429517 -0.71206,0.669322 -0.24276,0.264045 -0.44952,0.559054 -0.67427,0.838581 -1.75951,2.289548 -2.21092,5.059541 -2.52245,7.850119 -0.14349,3.531726 0.9921,5.82909 3.10755,8.536973 1.24087,1.84229 3.4946,2.52465 5.00774,4.026941 1.22762,3.894397 0.51834,0.89822 -8.60707,5.893637 -0.0138,0.0075 -2.33231,0.0093 -2.57742,0.06047 -0.35121,0.07328 -0.68386,0.217282 -1.02579,0.325923 -3.58785,2.571322 1.05762,-0.817479 6.00445,-3.165435 0.49199,-0.233519 -0.81572,0.724598 -1.18413,1.12567 -1.22029,1.328459 -2.00381,2.789496 -2.75987,4.407185 -0.87913,2.446271 -1.58355,5.166087 -0.8764,7.758745 0.13733,0.50351 0.37611,0.973686 0.56417,1.460529 1.62824,3.281115 4.59556,5.415256 7.49011,7.499621 3.26986,2.083832 6.96549,3.29118 10.73061,4.101635 2.1757,0.203551 4.8454,1.117269 6.95279,0.241638 -16.93191,9.320449 -3.72851,2.062003 1.37491,-0.0069 0.16508,-0.06692 0.11717,0.33665 0.16587,0.507989 0.096,0.33788 0.17882,0.679394 0.26822,1.019091 1.18486,3.810034 3.56372,7.038393 5.95073,10.173843 1.68187,1.91638 3.51589,3.76212 5.91919,4.73906 1.36623,0.55537 2.05768,0.62144 3.51043,0.91451 4.24586,0.68545 7.51009,0.11905 11.32389,-1.80014 -12.21626,7.17386 -6.32666,3.84914 -4.09293,1.03308 1.0829,-1.36522 1.73492,-2.82822 2.34717,-4.43972 0.4201,-1.21854 0.61164,-2.48633 0.78982,-3.75584 0.0208,-0.14808 0.16987,-1.19576 0.17413,-1.19813 2.9462,-1.639526 5.99593,-3.085679 8.99389,-4.628517 1.24592,1.037536 2.13268,2.402887 3.23044,3.578042 0.83522,0.894105 1.54209,1.497675 2.45057,2.319125 2.63412,2.21966 5.63065,3.77559 8.95018,4.6405 3.72712,0.8441 6.98642,-0.19768 10.2438,-1.97536 -12.44704,7.28207 -6.17036,3.86172 -3.88006,1.38107 1.14027,-1.23504 1.92916,-2.56553 2.67404,-4.05687 1.0943,-2.257455 0.96035,-4.789777 1.45895,-7.180537 2.92676,-1.730963 5.68379,-3.787926 8.78028,-5.192891 0.36212,-0.164302 0.59151,0.532128 0.87314,0.812859 0.32789,0.326843 0.63396,0.674894 0.95449,1.008952 1.48584,1.548528 2.97484,3.017113 4.59889,4.42212 2.46684,1.979625 5.01249,3.916417 7.89818,5.251807 1.65342,0.76514 2.05636,0.82014 3.77184,1.33196 0.59466,0.0941 1.1831,0.24477 1.784,0.28231 1.33889,0.0837 2.3252,-0.0628 3.58253,-0.53566 0.6125,-0.23033 2.33547,-1.17902 1.76818,-0.85285 -7.61385,4.37767 -8.08035,4.97342 -4.87162,2.18479 2.69078,-2.75318 4.13566,-6.206152 4.95179,-9.904047 0.64253,-2.321193 -0.38745,-4.623465 -0.32908,-6.922892 2.91508,-1.817533 5.72819,-3.809876 8.74524,-5.452598 0.25813,-0.140544 0.57051,0.14249 0.85197,0.227112 1.46473,0.440368 2.89651,0.868073 4.39539,1.187877 2.48451,0.440434 3.94329,0.839526 6.178,-0.560778 -12.07863,6.682909 -8.73366,5.806698 -6.56357,3.20305 1.15268,-1.382968 1.97434,-2.982932 2.69034,-4.620941 1.19536,-3.557648 -0.6783,-6.086559 -2.85821,-8.734266 -2.40164,-2.5821 -5.34949,-4.616473 -8.54383,-6.089956 -0.0779,-0.03652 -1.20344,-0.532112 -1.38764,-0.711225 -0.12977,-0.12618 -0.42093,-0.362054 -0.27453,-0.468482 2.75443,-2.002368 5.65297,-3.803648 8.56946,-5.561621 0.16671,-0.100489 0.38791,0.05716 0.5822,0.04526 0.21425,-0.01312 0.42182,-0.07979 0.63273,-0.119682 3.10504,-0.962189 8.2628,-3.787271 -6.11028,3.68862 -0.31034,0.161422 0.54422,-0.443456 0.78122,-0.700765 0.69357,-0.75303 0.76229,-1.051708 1.23291,-1.974901 1.34132,-3.62142 1.0515,-6.2882 -0.20937,-9.855327 -2.72041,-5.379593 -8.15498,-8.016519 -13.30827,-10.586386 -4.25703,-1.820316 -8.72328,-3.522648 -13.38861,-3.79241 -0.39802,0.07794 -0.81147,0.09923 -1.19407,0.233813 -0.3508,0.123399 -1.30476,0.714173 -0.98097,0.531297 2.46981,-1.394931 4.91837,-2.82893 7.41916,-4.167539 0.28441,-0.152238 -0.51922,0.384804 -0.75783,0.601897 -0.5665,0.515405 -0.72783,0.778976 -1.18279,1.373494 -2.43355,4.238076 -0.46904,2.674477 -9.98597,6.405035 -0.38384,0.150461 -0.6309,-0.530895 -0.94652,-0.79614 -0.42267,-0.35521 -0.84557,-0.710148 -1.26835,-1.065222 -4.62873,-3.837192 -10.15344,-6.127426 -15.85993,-7.81207 -2.74862,-0.497579 -5.69989,-1.627242 -8.54956,-1.133068 -1.02402,0.17758 -1.62825,0.612154 -2.50315,1.10543 13.4489,-7.436032 8.3493,-5.621588 6.4772,-3.135059 -1.11276,1.477974 -1.78355,3.278415 -2.38135,5.007546 -0.42313,1.215456 -0.58449,2.484249 -0.75523,3.750117 -0.0233,0.172761 0.0605,0.42687 -0.0898,0.515217 -2.92457,1.719316 -5.97936,3.206876 -8.96904,4.810314 -2.09952,-1.693312 -4.51758,-2.805234 -6.98533,-3.84335 -3.28744,-1.217825 -6.68707,-2.097769 -10.13818,-2.69671 -2.07525,-0.30783 -4.2578,-0.423913 -6.32763,0.03116 -0.55877,0.122853 -1.74101,0.598262 -2.29158,0.809715 -3.67154,2.313087 1.26229,-0.816003 6.59335,-3.660778 0.27089,-0.144552 -0.4761,0.389036 -0.69641,0.6029 -0.64039,0.621639 -1.08139,1.339635 -1.51504,2.11009 -1.90208,4.566998 -2.08517,3.464862 -9.72313,7.250441 -0.20901,0.103591 -1.39942,-1.060092 -1.44223,-1.099113 -1.47779,-1.153124 -2.93635,-2.263455 -4.72299,-2.876058 -1.53838,-0.523502 -2.7969,-0.1136 -4.074,0.794401 13.69461,-7.960956 7.32171,-5.033026 4.75653,-1.480809 -0.85508,1.254244 -1.02361,2.7247 -1.12761,4.197812 -0.20227,1.272389 0.19667,2.415449 0.59056,3.59773 0,0 -8.59843,4.728776 -8.59843,4.728776 l 0,0 c -0.41131,-1.284563 -0.89202,-2.555706 -0.74304,-3.934099 0.0809,-1.590908 0.15738,-3.222013 0.91588,-4.660791 2.61962,-4.382341 7.36755,-6.107264 11.81754,-8.600512 1.54169,-0.676234 3.01249,-0.769697 4.58988,-0.09298 1.78258,0.7905 3.27046,2.003127 4.86847,3.10123 0.18834,0.107509 0.35335,0.275332 0.56502,0.322528 0.1236,0.02756 0.4694,-0.182665 0.36181,-0.11587 -2.64336,1.641054 -5.31894,3.229616 -7.97841,4.844425 0.13842,-0.138377 0.30592,-0.252797 0.41527,-0.41513 0.25042,-0.371745 0.49645,-1.151637 0.63792,-1.547162 2.26216,-4.907389 7.03898,-6.89273 12.1539,-9.018804 2.87302,-0.879066 5.83127,-0.917246 8.78354,-0.349966 3.48903,0.668843 6.93493,1.584645 10.25233,2.866755 1.52836,0.633894 3.02745,1.277143 4.47819,2.076878 0.11058,0.06096 1.82042,1.066411 2.09473,1.187315 0.17328,0.07637 0.36657,0.0952 0.54985,0.142795 -2.71544,1.632559 -5.43768,3.253854 -8.14631,4.897678 -0.10895,0.06612 0.28642,-0.05068 0.3456,-0.163551 0.11454,-0.218463 0.0833,-0.486271 0.12278,-0.729754 0.17825,-1.098133 0.36073,-2.195999 0.70555,-3.258097 0.45267,-1.380197 0.954,-2.678587 1.58843,-3.986566 0.16104,-0.331999 0.9943,-2.159962 1.38172,-2.420091 2.97688,-1.99881 6.1364,-3.711188 9.20461,-5.566782 0.4125,-0.158729 0.81028,-0.362887 1.2375,-0.476185 3.26918,-0.866992 6.71636,0.647278 9.85571,1.339892 5.78461,1.878961 11.36963,4.333649 16.34896,7.876505 0.45792,0.307088 0.89698,0.644353 1.37376,0.921264 0.24815,0.144128 1.02524,0.169168 0.79231,0.33679 -2.53159,1.821778 -5.33414,3.233912 -8.00121,4.850869 0.11406,-0.0842 0.25663,-0.139552 0.34218,-0.252598 0.0813,-0.107355 0.6726,-1.391306 0.67589,-1.398343 2.60471,-4.165769 6.04353,-4.944706 11.08624,-7.695707 0.33893,-0.184902 0.73503,-0.250964 1.11724,-0.305549 0.41717,-0.05958 0.84249,-0.02299 1.26374,-0.03449 4.59544,0.6677 8.93757,2.462659 13.14121,4.373485 5.35921,2.705642 11.03665,5.4761 14.0186,10.975786 1.38726,3.68948 1.79002,6.573967 0.69582,10.424686 -0.15228,0.412038 -0.27206,0.837589 -0.45684,1.236113 -1.96865,4.245891 -7.6338,6.653092 -12.06834,7.683263 -0.2293,0.0355 -0.4625,0.05142 -0.68789,0.106503 -0.16623,0.04062 -0.62201,0.276198 -0.48106,0.179168 9.4883,-6.532017 5.3198,-6.778303 8.94562,-4.674385 3.17989,1.716241 6.12405,3.875979 8.58364,6.536247 2.26365,2.752313 4.54743,5.786556 3.52313,9.547286 -0.51025,1.312249 -1.09329,2.522756 -1.82217,3.730582 -0.12482,0.20685 -1.25229,2.019601 -1.50358,2.187754 -2.97361,1.989761 -6.10198,3.737896 -9.15297,5.606844 -2.32385,0.879962 -4.15962,0.517037 -6.53302,0.0065 -1.16097,-0.26804 -2.32005,-0.612928 -3.48949,-0.838254 -0.29745,-0.05731 -0.5987,-0.133113 -0.9012,-0.117111 -0.21066,0.01114 -0.40104,0.13107 -0.60156,0.196604 2.61072,-1.660549 5.22144,-3.321099 7.83216,-4.981648 -0.0784,0.128915 -0.20998,0.237986 -0.23506,0.386745 -0.0663,0.393089 0.16778,1.794235 0.19573,2.031416 0.1805,1.531716 0.31061,3.073165 0.0896,4.610489 -0.79568,3.844789 -2.21898,7.47001 -4.82134,10.479368 -4.01317,4.019226 -1.66769,1.917006 -11.28515,7.265236 -2.32949,1.29542 -5.05041,1.23587 -7.54134,0.56399 -4.4838,-1.53384 -8.14765,-3.92134 -11.77406,-6.96014 -1.66292,-1.39594 -3.22065,-2.892958 -4.87052,-4.30152 -0.32036,-0.273504 -0.62102,-0.579329 -0.9844,-0.792384 -0.13707,-0.08037 -0.60474,0.02641 -0.47265,-0.06191 2.60513,-1.742103 5.32379,-3.308134 7.98569,-4.962201 -0.58607,0.853132 -0.54295,1.757191 -0.67618,2.767793 -0.20393,1.546853 -0.48351,3.08904 -1.00203,4.565449 -3.14604,7.047737 -7.77,8.583257 -14.91854,12.575517 -3.50294,1.63784 -6.87732,2.45445 -10.71506,1.44481 -3.39192,-1.02056 -6.45624,-2.73483 -9.17132,-5.02231 -0.63447,-0.57502 -1.96633,-1.76527 -2.56656,-2.37659 -1.03997,-1.05919 -1.88835,-2.3651 -3.2449,-3.06082 17.44161,-10.469619 8.44579,-7.22935 7.75772,-3.930659 -0.27675,1.326737 -0.33515,2.707279 -0.8235,3.990769 -2.63115,7.72364 -6.69477,8.97548 -14.35135,13.35927 -3.90126,1.63602 -7.48199,2.11396 -11.67185,1.29509 -1.58717,-0.36967 -2.20952,-0.42662 -3.68243,-1.10685 -2.45359,-1.13314 -4.3015,-3.13216 -6.01717,-5.16139 -2.46775,-3.21215 -4.87043,-6.52692 -6.43248,-10.290819 -0.10271,-0.28905 -0.18762,-0.585053 -0.30813,-0.86715 -0.0836,-0.195778 -0.48396,-0.451058 -0.30255,-0.562465 2.83199,-1.739125 5.83718,-3.182236 8.81225,-4.66334 0.0989,-0.04924 -0.0497,0.215846 -0.0873,0.319732 -0.0606,0.167419 -0.0542,0.400589 -0.20664,0.49254 -2.93907,1.772586 -5.98386,3.363659 -8.9758,5.045488 -2.34135,0.230058 -4.6868,-0.374948 -6.97577,-0.785059 -3.82784,-0.936345 -7.58109,-2.265121 -10.89452,-4.442533 -3.06551,-2.180041 -6.11056,-4.475471 -7.84513,-7.917591 -0.22341,-0.541357 -0.50069,-1.063505 -0.67025,-1.62407 -0.83217,-2.751157 -0.20559,-5.636105 0.66832,-8.28248 2.75424,-6.76571 6.86513,-9.049321 14.29727,-12.229012 1.03533,-0.19629 2.05813,-0.213618 3.09234,-0.37471 0.21586,-0.03363 0.81784,-0.281856 0.635,-0.162267 -7.98162,5.220695 -10.51028,3.032454 -7.68091,5.279681 -0.40726,-0.526062 -0.98917,-0.885568 -1.51408,-1.282951 -0.93384,-0.706967 -1.34227,-0.981265 -2.19041,-1.827504 -0.36876,-0.367934 -0.70199,-0.769837 -1.05298,-1.154755 -2.24663,-2.886349 -3.50116,-5.428294 -3.45728,-9.176857 0.26155,-2.866825 0.52897,-5.786998 2.17495,-8.247403 2.64222,-4.044125 3.9428,-3.465467 10.3042,-7.193109 0.84261,-0.49375 1.82335,-0.646433 2.78114,-0.673128 2.40556,0.165336 4.76254,0.702434 6.93258,1.78357 2.17971,1.055302 4.25695,2.233995 5.88882,4.069213 0,0 -8.50701,5.04848 -8.50701,5.04848 z"
       transform="translate(0,572.36218)" />
    <path
       style="fill:#dddddd;fill-opacity:1;stroke:none"
       id="path3684"
       d="m 514.11507,85.464367 c -1.782,-2.311564 -3.30842,-4.771961 -4.53932,-7.416324 -0.95148,-2.718945 -1.71179,-5.654587 -1.10225,-8.542964 0.11927,-0.565215 0.32591,-1.108405 0.48887,-1.662607 0.87142,-2.009058 2.12793,-3.997987 4.05245,-5.164361 9.16062,-5.551885 6.45111,-4.406808 11.65072,-6.378638 3.20867,-0.966641 6.64121,-1.806322 10.01196,-1.253953 0.63529,0.104106 1.25054,0.306396 1.8758,0.459594 3.45912,1.214887 5.86139,3.821535 7.73788,6.861765 0.73961,1.032572 1.23405,2.200459 1.81875,3.316951 0.15531,0.296579 0.47754,0.938493 0.7164,0.703919 0.1316,-0.129235 0.12009,-0.348796 0.18014,-0.523194 -12.5883,7.776641 -8.52907,5.42979 -5.95859,2.272255 1.14182,-1.402603 2.22381,-2.842594 3.38844,-4.227634 4.57015,-5.109175 10.80165,-8.874515 17.41218,-10.693464 3.82234,-0.774991 7.02629,0.139624 10.5112,1.640117 3.06502,1.569649 4.47947,3.262442 5.68423,6.436671 0.25604,0.606761 0.83563,4.690428 1.57291,4.497082 0.19894,-0.05217 0.30216,-0.279115 0.45324,-0.418673 0.25711,-0.163634 1.03764,-0.639067 0.77132,-0.490903 -2.4352,1.354781 -4.83619,2.770786 -7.27919,4.111449 -0.43748,0.240079 0.84095,-0.537508 1.26011,-0.808314 0.89935,-0.581051 2.12134,-1.398057 3.04023,-1.927357 3.24499,-1.869176 6.50977,-3.703763 9.76466,-5.555645 3.35844,-1.457168 7.0226,-1.990751 10.66033,-2.019817 3.31907,0.04615 5.88038,1.772891 8.21497,3.953537 2.17083,2.826597 2.80217,6.399362 3.33167,9.837958 0.38513,2.355198 0.39597,4.72332 0.22345,7.094807 0.51032,3.503795 0.17954,0.602168 -8.96749,4.155916 -0.18401,0.07149 0.21298,-0.332457 0.31728,-0.50006 0.59411,-0.954672 1.28832,-1.676776 2.09196,-2.464255 4.57102,-3.460277 9.78935,-7.457404 15.71641,-7.249708 3.08024,0.433331 4.53358,2.095835 6.01009,4.675519 1.73993,3.378805 2.45201,7.118423 2.6893,10.877794 0.063,4.381537 -1.83639,8.12759 -4.00318,11.79506 -1.83619,2.81972 -3.86031,5.54692 -6.57456,7.57091 -3.07095,1.75897 -6.10315,3.58739 -9.21285,5.27689 -1.10862,0.60231 -2.3587,-0.0797 -3.0663,-0.90155 -1.89342,-3.74773 1.47711,-2.54299 8.48622,-5.73843 0.20696,-0.0944 1.42181,2.0383 1.52713,2.22411 1.3187,2.80924 1.60608,5.28276 1.03814,8.3189 -0.58503,1.74778 -1.51941,3.71228 -3.16332,4.73264 -8.88413,5.51433 -6.18657,4.52572 -11.15394,6.10124 -4.25769,1.11735 -8.01728,0.67832 -12.13041,-0.74004 -3.09011,-1.10316 -5.05142,-2.65398 -6.17936,-5.74138 -0.5064,-1.78965 -0.48802,-3.65246 -0.62656,-5.4898 -0.0681,-0.11436 -0.32522,-0.28748 -0.20429,-0.34308 2.95661,-1.35945 5.92634,-2.73081 9.02836,-3.71422 0.28856,-0.0915 -0.0663,0.60387 -0.14191,0.897 -0.0907,0.35189 -0.20129,0.70152 -0.35521,1.03071 -0.51139,1.09369 -0.88509,1.42674 -1.66089,2.38811 -4.14868,3.84943 -9.20881,7.00962 -14.64562,8.65998 -1.81103,0.54975 -2.29966,0.55641 -4.19535,0.85353 -5.11194,0.4186 -9.90077,-1.09438 -14.50871,-3.13338 -3.77742,-1.72218 -6.68792,-4.53048 -8.83751,-8.0312 -0.20407,-0.41424 -0.42562,-0.82031 -0.6122,-1.24271 -0.36456,-0.82528 -0.53168,-1.36743 -0.72702,-2.24154 -0.18099,-0.80992 -0.17814,-1.44566 -0.72906,-2.07971 -2.70284,0.84968 -5.34268,1.89398 -8.02807,2.79915 -3.71128,1.32502 -7.61339,1.94314 -11.52087,2.3162 -3.31637,0.37832 -5.52658,-0.41787 -8.08769,-2.46159 -1.84693,-2.00533 -2.59843,-4.46199 -3.01091,-7.09049 -0.31514,-2.06953 -0.15404,-4.12968 0.34736,-6.148638 -0.12284,0.926756 0.0752,-0.576583 0.15475,-0.442198 0.20083,0.339254 0.47108,0.667534 0.52992,1.057356 0.0228,0.151018 -1.54804,0.60059 -1.67853,0.6365 -1.6608,0.39956 -3.36843,0.72491 -5.07648,0.55099 -1.63114,-0.33648 -2.77248,-1.489737 -3.64465,-2.841503 -0.80976,-1.541441 -0.89858,-3.29928 -0.86599,-5.005169 0.21539,-2.085199 1.31979,-3.854579 2.6503,-5.413948 3.27605,-3.431598 7.12522,-4.860684 11.52649,-7.36341 0,0 -7.67883,6.117573 -7.67883,6.117573 l 0,0 c 14.40527,-8.400594 8.00486,-5.147467 5.11804,-2.518061 -1.31598,1.356707 -2.52956,2.892327 -2.898,4.794185 -0.1363,1.490187 -0.0194,3.069429 0.61874,4.442212 0.72919,1.129808 1.70654,1.989091 3.10424,2.074312 1.65283,-0.04542 3.29887,-0.30084 4.86362,-0.850721 0.44713,-0.190515 1.71368,-0.87132 1.75648,-0.843408 0.8586,0.559909 0.90613,0.934395 0.42282,1.426902 -0.79158,1.836841 -0.96508,3.838341 -0.71195,5.815746 0.33782,2.38617 0.93164,4.65898 2.64482,6.4586 2.41803,1.86736 4.55521,2.2629 7.57916,1.92052 3.8546,-0.39463 7.67884,-1.07389 11.32078,-2.44377 1.83136,-0.64915 3.6416,-1.39053 5.49786,-1.96636 0.6726,-0.20865 1.86678,-0.61186 2.6536,-0.45743 0.32311,0.0634 0.5906,0.29135 0.8859,0.43702 1.09271,1.74658 0.72651,3.99871 1.89287,5.75806 1.95586,3.39872 4.67887,6.05661 8.30265,7.67115 4.53399,1.95402 9.26287,3.30345 14.25275,2.63867 1.7835,-0.36039 2.43382,-0.42299 4.12451,-1.02353 0.63732,-0.22638 2.4361,-1.15292 1.87511,-0.77513 -2.03719,1.3719 -4.20384,2.54155 -6.32828,3.77403 -0.5382,0.31224 1.06751,-0.64306 1.56818,-1.0125 0.44551,-0.32874 0.84275,-0.7183 1.26413,-1.07746 0.67669,-0.74406 1.15917,-1.18784 1.66353,-2.03949 0.15667,-0.26455 0.28014,-0.54932 0.38332,-0.83895 0.0763,-0.21428 -0.0446,-0.55163 0.15249,-0.66514 2.92103,-1.6821 6.06295,-2.95622 9.00203,-4.60658 0.11425,-0.0641 -0.15186,-0.21356 -0.22779,-0.32034 -0.17557,1.75503 -0.0523,3.54769 0.30725,5.27148 0.91894,2.77742 2.77487,4.17173 5.52237,5.1176 4.03925,1.29004 7.73601,1.52934 11.80949,0.17887 3.62186,-1.54708 3.85664,-1.72779 -5.26448,3.36899 -0.4167,0.23284 0.78686,-0.54445 1.14504,-0.85999 0.62757,-0.55288 1.28627,-1.33776 1.70483,-2.06416 0.22394,-0.38864 0.37589,-0.81455 0.56384,-1.22182 0.73826,-2.96817 0.53852,-4.85362 -0.7989,-7.6199 -0.2408,-0.37615 -0.61139,-1.02448 -0.96504,-1.35365 -0.11049,-0.10284 -0.51425,-0.14863 -0.38866,-0.23237 2.69959,-1.80016 5.57413,-3.32433 8.3185,-5.05545 0.0567,-0.0358 -0.14202,-0.1233 -0.18717,-0.0737 -0.0501,0.055 0.0388,0.14355 0.0582,0.21533 0.44328,0.38994 0.96521,0.42455 1.52913,0.23956 0.23629,-0.0775 0.90231,-0.41342 0.68957,-0.28467 -2.4409,1.47723 -4.92054,2.88947 -7.3808,4.33421 2.9315,-1.77989 5.05007,-4.46382 6.95414,-7.27946 2.15766,-3.48737 4.17564,-7.030599 4.19965,-11.261224 -0.16567,-3.609508 -0.78937,-7.224494 -2.55194,-10.42755 -1.41775,-2.273192 -2.71599,-3.652151 -5.5344,-3.783631 -1.25405,0.0839 -1.12977,0.01977 -2.41702,0.355143 -0.45461,0.118442 -1.73865,0.669636 -1.34944,0.406557 2.24208,-1.515474 4.65109,-2.768518 6.95183,-4.19335 0.35875,-0.222173 -0.76292,0.364233 -1.12329,0.583782 -0.35431,0.21586 -0.67714,0.479589 -1.0157,0.719383 -0.65687,0.612807 -1.60533,1.280247 -2.07313,2.071963 -0.0968,0.1639 -0.0111,0.455916 -0.18111,0.541638 -3.0068,1.516354 -6.14267,2.762488 -9.1943,4.186461 -0.0619,0.02887 0.13642,0.0056 0.20463,0.0084 0.64992,-2.258929 0.4433,-4.661875 0.2088,-6.966186 -0.43721,-3.228006 -0.99675,-6.610455 -3.07996,-9.229211 -2.32282,-2.106297 -4.50268,-3.426402 -7.75535,-3.376536 -3.56736,0.140138 -7.12874,0.716381 -10.34919,2.339011 2.16674,-1.274353 4.3294,-2.555683 6.50023,-3.823058 0.52617,-0.307185 -1.0509,0.617211 -1.56612,0.942425 -0.87453,0.552023 -1.69583,1.187806 -2.5863,1.713724 -3.10735,1.835213 -6.20244,3.693332 -9.35852,5.443419 -0.30691,0.170187 -0.67182,0.203204 -1.00773,0.304806 -0.31253,-0.08263 -0.65745,-0.08658 -0.9376,-0.247886 -1.35946,-0.782746 -1.09791,-3.727439 -1.64307,-5.018656 -1.05903,-2.9174 -2.39536,-4.414458 -5.20376,-5.816605 -3.38608,-1.417731 -6.47523,-2.066129 -10.11506,-1.110808 -3.50094,1.141937 -8.58746,4.071301 3.23909,-2.560674 0.55695,-0.312322 -1.07895,0.68575 -1.58908,1.069812 -1.45403,1.094678 -1.55048,1.322075 -2.78319,2.660969 -1.16985,1.348872 -2.2223,2.743767 -3.30043,4.164799 -0.29696,0.391412 -0.60791,0.772068 -0.9054,1.163086 -0.23395,0.307511 -0.36567,0.720435 -0.68877,0.932336 -2.94885,1.933957 -6.04037,3.641079 -9.06056,5.461619 -0.2331,-0.07268 -0.48993,-0.09241 -0.6993,-0.218033 -1.14116,-0.684715 -1.5141,-3.558858 -2.49911,-4.543654 -1.7227,-2.857842 -3.98815,-5.242755 -7.26587,-6.253729 -0.59222,-0.117225 -1.17711,-0.280971 -1.77667,-0.351676 -3.30496,-0.389753 -6.63909,0.525148 -9.73117,1.585484 -3.89081,1.753537 -3.42093,1.621782 4.64881,-2.983059 0.47885,-0.273246 -0.95485,0.558373 -1.38814,0.899289 -0.86372,0.679586 -1.51309,1.458798 -2.12025,2.366875 -0.28774,0.43036 -0.52286,0.893666 -0.78429,1.340498 -0.42457,1.211593 -0.69496,1.746063 -0.82327,3.025649 -0.22474,2.241341 0.35799,4.462295 1.11166,6.548462 1.18796,2.584398 2.68803,5.016189 4.69158,7.056754 0,0 -8.46524,5.059516 -8.46524,5.059516 z"
       transform="translate(0,572.36218)" />
  </g>
</svg>
